<svg width="26" height="24" viewBox="0 0 26 24" fill="none" xmlns="http://www.w3.org/2000/svg">
<path d="M7.37355 9.0716C7.62117 8.69629 7.46526 7.92592 7.17178 7.67901C7.05256 7.58024 6.92416 7.53086 6.77743 7.52098C6.81411 7.40246 6.81411 7.27407 6.76826 7.15555C6.67654 6.90864 6.41058 6.7111 6.07125 6.79999C5.68607 6.90864 5.64021 7.25431 5.64021 7.50123V7.59999H5.9612V7.50123C5.9612 7.23456 6.0254 7.16543 6.14462 7.1358C6.30053 7.09629 6.42893 7.1753 6.46561 7.28394C6.52064 7.42222 6.40141 7.5111 6.32804 7.55061C6.29136 7.57036 6.2455 7.59012 6.19965 7.60987L6.11711 7.6395V7.64938L6.08042 7.66913L6.20882 7.98518L6.3097 7.9358C6.52981 7.86666 6.7866 7.78765 6.97002 7.94567C7.14427 8.08394 7.25432 8.64691 7.10759 8.86419C7.01587 8.99259 6.81411 9.09135 6.64903 9.06172C6.54815 9.05185 6.47478 8.99259 6.4381 8.9037C6.41975 8.86419 6.41058 8.82469 6.40141 8.78518L6.3739 8.68641L6.06208 8.78518L6.0896 8.88394C6.09877 8.92345 6.11711 8.98271 6.13545 9.03209C6.21799 9.2395 6.38307 9.37777 6.60318 9.4074C6.63069 9.4074 6.66737 9.41728 6.69489 9.41728C6.97002 9.41728 7.23598 9.27901 7.37355 9.0716Z" fill="var(--ion-color-light)"/>
<path d="M5.78122 8.34579L4.43298 9.10718L4.58205 9.41331L5.93029 8.65192L5.78122 8.34579Z" fill="var(--ion-color-light)"/>
<path d="M26.1101 10.3457C26.1009 10.2074 26.0825 10.0691 26.055 9.92099L26 9.59507C25.9908 9.56544 25.9725 9.53581 25.9725 9.50618C25.9633 9.45679 25.9083 9.25926 25.8899 9.21976V9.23951C25.8441 9.07161 25.7891 8.90371 25.7065 8.73581L25.6882 8.71605C25.569 8.58766 25.4131 8.42963 25.4131 8.41976C25.3305 8.33087 25.2938 8.29136 25.2571 8.27161L25.248 8.26173L24.9637 8.0642C24.9545 8.05433 24.9453 8.05433 24.9362 8.05433L24.5693 7.88642C24.5143 7.86667 24.4684 7.83704 24.4134 7.81729C24.34 7.78766 24.1199 7.74815 24.019 7.74815C24.0099 7.74815 24.0007 7.74815 23.9915 7.74815C23.9824 7.74815 23.9824 7.74815 23.9732 7.74815C23.9732 7.66914 23.9824 7.59013 23.9824 7.50124C23.9915 6.43457 23.5788 5.91112 22.7993 5.29877C22.5792 5.13087 22.3591 4.9926 22.0931 4.85433C21.176 4.39013 20.6991 4.35062 19.7362 4.27161L19.6353 4.26173C19.1859 4.22223 18.8007 4.25186 18.3422 4.3605C18.1679 4.4 18.0212 4.43951 17.8928 4.47902C17.8286 3.88642 17.7185 3.49136 17.4526 2.9284C17.2691 2.54321 16.9848 2.22716 16.7097 1.93087L16.6822 1.90124C16.2236 1.38766 15.5541 0.962967 14.848 0.72593C13.8667 0.390127 13.0596 0.320992 12.0508 0.46914C11.5647 0.538276 11.0603 0.686424 10.4642 0.943214C9.52875 1.33828 8.85926 1.87161 8.4649 2.53334C8.07055 3.20494 7.95132 3.4321 7.86878 4.15309C7.44692 4.05433 7.01587 4.00494 6.57566 4.0247C5.94286 4.04445 5.46596 4.09383 4.9157 4.31112L4.88818 4.32099C4.05362 4.64692 3.54921 4.84445 2.85221 5.47655C2.74215 5.58519 2.64127 5.70371 2.52205 5.87161C2.32028 6.15803 2.1552 6.4247 2.10935 6.81976C2.09101 6.97778 2.08184 7.07655 2.10018 7.16544C1.78836 7.13581 1.4582 7.2247 1.15556 7.42223C1.11887 7.44198 1.09136 7.46173 1.06385 7.48149C0.935451 7.5605 0.889596 7.59013 0.651148 7.84692C0.467726 8.04445 0.4127 8.11358 0.385187 8.13334C0.348502 8.16297 0.302647 8.2321 0.220107 8.34074C0.183423 8.39013 0.0641992 8.55803 0.0183438 8.62716L0.0091727 8.63704C1.62981e-06 8.64692 1.62981e-06 8.65679 1.62981e-06 8.66667V8.6963C-0.0183405 9.00247 -0.0275116 9.42717 -0.0275116 9.7926C0.0550281 17.5457 5.98871 23.7778 13.1972 23.6889C15.655 23.6593 18.0395 22.8889 20.103 21.4667C22.1665 20.0444 23.8081 18.0395 24.8628 15.6494C25.5965 13.9901 26.0183 12.2025 26.1009 10.3556L26.1101 10.3457ZM25.1929 11.2049C24.9086 10.9877 24.7069 11.0963 24.5418 11.2444L24.4501 11.3235L24.6794 11.6593L24.7802 11.5704C24.8811 11.4815 24.8903 11.4815 24.9728 11.5506C25.0645 11.6198 25.1196 11.7482 25.1104 11.8173C25.1104 11.837 25.1012 11.8667 25.0279 11.8963C24.9728 11.9161 24.9178 11.9358 24.8628 11.9556L24.7711 11.9852C24.716 12.0049 24.661 12.0247 24.606 12.0444L24.5693 12.0642C24.2667 12.1827 23.9548 12.3012 23.6522 12.4198C23.5972 12.4395 23.5422 12.4691 23.4871 12.4988L23.157 12.6568L24.3675 13.6444L24.5785 13.3086L23.909 12.7654C24.1658 12.6667 24.4317 12.558 24.6885 12.4593L24.7252 12.4395C24.7986 12.4099 24.8628 12.3901 24.9362 12.3704C24.9362 12.3704 25.0279 12.3605 25.0554 12.3309C25.0646 12.321 25.0646 12.3309 25.1012 12.321C25.1287 12.3111 25.1379 12.3012 25.1471 12.3111C25.1654 12.321 25.1287 12.4099 25.1287 12.4099C25.0554 12.5975 24.8353 13.9901 24.2483 15.3827C24.175 15.5704 24.0924 15.7482 24.0007 15.9259C23.964 15.8173 23.8998 15.7185 23.8173 15.6494L23.7714 15.6198C23.7531 15.6099 23.7347 15.6 23.7072 15.5901C23.8081 15.5012 23.9182 15.3827 23.9549 15.2642C24.0649 14.9383 23.6889 14.4346 23.5146 14.2963C23.322 14.1482 23.0744 14.1284 22.836 14.237C22.6984 14.2963 22.5792 14.3951 22.4875 14.5136C22.3866 14.3951 22.2399 14.3259 22.0656 14.3259C21.8822 14.3259 21.5795 14.4642 21.4603 14.6123C21.3503 14.7407 21.1485 15.1259 21.1118 15.3037C21.0751 15.4617 21.0935 15.6 21.1577 15.7185C21.1393 15.7086 21.121 15.7086 21.1118 15.6988C20.9559 15.6395 20.7541 15.6395 20.6624 15.7975C20.4974 16.0642 20.4974 16.4296 20.6441 16.8938L20.2314 17.1407L20.3965 17.4568L20.7725 17.2296C20.7817 17.2494 20.7908 17.2691 20.8 17.2988L20.8092 17.3185C20.9009 17.5259 21.1668 17.8815 21.4145 17.9506C21.4695 17.9704 21.5337 17.9803 21.5887 17.9803C21.6346 17.9803 21.6804 17.9704 21.7355 17.9605H21.7446C21.8638 17.9111 21.9556 17.8124 22.0014 17.6642C22.0381 17.5654 22.0473 17.437 22.0289 17.3185C22.0564 17.3185 22.084 17.3284 22.1115 17.3284C22.3407 17.3482 22.46 17.2099 22.5608 17.0815C22.57 17.0716 22.57 17.0617 22.5792 17.0617C22.6434 17.1407 22.7259 17.2 22.8085 17.2296C22.9735 17.2988 23.157 17.279 23.322 17.1803C21.8272 19.6593 19.6169 21.4864 17.049 22.3259L23.9915 9.12099L24.0099 9.10124C24.0466 9.07161 24.0466 9.07161 24.0924 9.06173C24.1291 9.06173 24.2758 9.09136 24.3034 9.10124C24.3492 9.12099 24.3859 9.14075 24.4409 9.17037L24.7619 9.33828L24.982 9.50618L25.1379 9.7926L25.2205 10.1086L25.2938 10.3062L25.3213 10.5432C25.3122 10.8 25.2938 11.0568 25.2663 11.3037C25.248 11.2543 25.2205 11.2247 25.1929 11.2049ZM22.7259 16.3111C22.7259 16.2716 22.7168 16.2321 22.7168 16.1827V16.1136C22.7168 16.0642 22.7076 15.9951 22.7076 15.9161C22.8543 15.9161 23.0194 15.9062 23.1386 15.8864C23.157 15.8864 23.1753 15.8765 23.1845 15.8765C23.3312 15.8765 23.4413 15.8963 23.5055 15.9358L23.5238 15.9457C23.588 15.9951 23.6155 16.1333 23.588 16.2025C23.5146 16.3803 23.2762 16.6765 23.1295 16.7654C23.0561 16.8148 22.9827 16.8148 22.9093 16.7951C22.836 16.7654 22.7901 16.7062 22.7534 16.6173C22.7534 16.6173 22.7443 16.5975 22.7443 16.5679C22.7443 16.4889 22.7351 16.4099 22.7259 16.3111ZM22.6617 15.0173C22.6892 14.8889 22.7901 14.7605 22.9277 14.7012C23.0469 14.6519 23.1661 14.6617 23.2487 14.721C23.3954 14.8296 23.5605 15.1358 23.5422 15.2049C23.5146 15.2938 23.2854 15.4716 23.1386 15.5309C23.0286 15.5309 22.9277 15.5407 22.8268 15.5506C22.781 15.5506 22.7443 15.5605 22.7076 15.5605H22.6892C22.6892 15.5309 22.6892 15.5012 22.6892 15.4815V15.4124C22.6892 15.3136 22.6801 15.1951 22.6709 15.0765C22.6617 15.0469 22.6617 15.0272 22.6617 15.0173ZM22.3041 16.7753C22.2307 16.8642 22.2123 16.8741 22.1665 16.8642C22.0564 16.8543 21.9464 16.8148 21.8547 16.7358C21.8363 16.7161 21.818 16.7062 21.8088 16.6864C21.7263 16.6074 21.6804 16.558 21.6621 16.4494C21.6529 16.3704 21.6437 16.2815 21.6162 16.1926C21.6529 16.0938 21.7171 15.9951 21.7446 15.9753H21.7538C21.8088 15.9753 21.8822 15.9753 21.9647 15.9753C22.1023 15.9654 22.2399 15.9556 22.3774 15.9457C22.3866 16.163 22.3958 16.4198 22.4141 16.5778C22.3958 16.6173 22.3774 16.6765 22.3041 16.7753ZM21.3044 16.4988L21.0843 16.637C21.0018 16.3704 21.0018 16.1728 21.0751 16.0247C21.0935 16.0247 21.121 16.0346 21.1393 16.0346C21.2127 16.0642 21.2586 16.1037 21.2861 16.1827C21.2769 16.2321 21.2677 16.2815 21.2769 16.321C21.2769 16.3803 21.2861 16.4395 21.3044 16.4988ZM22.3499 15.5901C22.0289 15.6 21.8455 15.6099 21.7355 15.6296C21.5979 15.6198 21.552 15.5803 21.5429 15.5704C21.5245 15.5407 21.5245 15.4914 21.5337 15.442C21.552 15.3432 21.7171 15.037 21.7813 14.9679C21.8363 14.9086 22.0289 14.8198 22.1023 14.8198C22.2123 14.8198 22.2949 14.8691 22.3316 15.1161C22.3316 15.2049 22.3407 15.3728 22.3499 15.5901ZM21.7446 17.3975C21.7355 17.4272 21.7171 17.4469 21.7079 17.4568C21.6713 17.4667 21.6346 17.4667 21.5887 17.4568C21.4878 17.4272 21.2952 17.2198 21.231 17.0617L21.2219 17.042C21.2127 17.0124 21.2035 16.9926 21.1852 16.963L21.442 16.8049C21.497 16.884 21.5612 16.9531 21.6346 17.0124C21.6713 17.0519 21.6896 17.0815 21.7079 17.1111C21.763 17.1803 21.7813 17.3086 21.7446 17.3975ZM1.72416 14.3654C1.72416 14.3358 1.74251 14.2667 1.78836 14.2272C1.8067 14.2074 1.83422 14.1975 1.88007 14.1975C1.92593 14.1975 1.98095 14.2074 2.07266 14.2272C2.2836 14.2765 2.43034 14.3556 2.54956 14.4148L2.60459 14.4444C2.80635 14.5432 3.01729 14.6222 3.24656 14.6716L3.37496 14.7012L3.36579 14.563C3.35662 14.4049 3.34744 14.2667 3.33827 14.1482C3.31993 13.8124 3.31993 13.7235 3.35662 13.6346C3.37496 13.5753 3.42998 13.4272 3.54004 13.3877C3.63175 13.358 3.7418 13.437 3.81517 13.4963C3.90688 13.5654 4.00776 13.7136 4.10864 13.921C4.20035 14.1086 4.28289 14.3358 4.33792 14.5728C4.39295 14.7803 4.42963 14.9482 4.42963 15.1753C4.42963 15.3333 4.41129 15.4914 4.36543 15.6395L4.25538 16.0148C4.09947 16.0642 3.95274 16.0741 3.79683 16.0543C3.75097 16.0444 3.61341 16.0247 3.20071 15.7778C3.0448 15.6889 2.9806 15.6296 2.87055 15.5506C2.78801 15.4914 2.67796 15.4123 2.50371 15.284C2.41199 15.2247 2.33863 15.1753 2.2836 15.1358C2.10018 15.0173 2.04515 14.9778 1.96261 14.879C1.88007 14.8 1.68748 14.5827 1.72416 14.3654ZM2.2836 15.6296C2.74215 15.9753 2.89806 16.084 3.07231 16.1926C3.3933 16.3901 3.59506 16.5086 3.84268 16.558C4.09947 16.5975 4.35626 16.5679 4.61305 16.4691L4.64974 16.4494L4.66808 16.4099C4.74145 16.2222 4.79647 16.0148 4.84233 15.8173C4.87901 15.6395 4.9157 15.4519 4.92487 15.2049C4.92487 14.9185 4.87901 14.7111 4.81482 14.4543C4.75979 14.2272 4.69559 13.9605 4.53968 13.6543C4.42963 13.437 4.29206 13.2296 4.12699 13.0519C3.96191 12.8642 3.71429 12.7951 3.49418 12.8741C3.28325 12.9432 3.12734 13.1309 3.08148 13.3679L3.06314 13.6642L3.05397 14.079L3.06314 14.1877C2.94392 14.1482 2.83386 14.0988 2.71464 14.0593C2.64127 14.0296 2.57707 14 2.52205 13.9704C2.38448 13.9012 2.25609 13.8519 2.07266 13.7926C1.86173 13.7333 1.62328 13.6938 1.48572 13.842C1.47654 13.8519 1.47654 13.8617 1.4582 13.8716C1.44903 13.8914 1.43069 13.9111 1.42152 13.9309C1.29312 13.5062 1.1739 13.0716 1.08219 12.637L1.16473 12.5482L1.60494 13.0716L1.85256 12.8444L1.39401 12.3012L1.74251 11.9161C1.8067 12.0543 1.88924 12.1926 1.99012 12.3012C2.08184 12.4 2.16438 12.4988 2.31111 12.5679C2.36614 12.5877 2.46702 12.6272 2.60459 12.6272C2.67796 12.6272 2.75132 12.6173 2.83386 12.5877C2.89806 12.5679 3.02646 12.5185 3.11817 12.3803C3.18236 12.2914 3.19154 12.2222 3.21905 12.1136C3.23739 12.0247 3.28325 11.8469 3.22822 11.6395C3.20988 11.5407 3.17319 11.4815 3.11817 11.3728C3.01729 11.1951 2.97143 11.0963 2.86138 10.9975C2.79718 10.9383 2.65044 10.8198 2.43951 10.8099C2.40282 10.8099 2.35697 10.8099 2.32028 10.8198C2.32945 10.721 2.30194 10.6321 2.27443 10.484C2.26526 10.4642 2.26526 10.4444 2.25609 10.4247C2.25609 10.4148 2.24692 10.3951 2.24692 10.3852C2.22857 10.2765 2.17355 10.1877 2.10935 10.1383C2.06349 10.1086 2.01764 10.079 1.9993 10.0691C1.95344 10.0494 1.92593 10.0395 1.88007 10.0296C1.85256 10.0198 1.82505 10.0099 1.77002 10C1.73333 9.99013 1.65997 9.98025 1.61411 9.98025C1.43986 9.97038 1.30229 10.0988 1.24727 10.1482C1.14639 10.2568 1.1097 10.3753 1.08219 10.4444C1.03633 10.6025 1.0455 10.7309 1.05468 10.7803C1.06385 10.8593 1.07302 10.9975 1.15556 11.1457C1.19224 11.2148 1.27478 11.363 1.4582 11.4321C1.54991 11.4617 1.64162 11.4617 1.70582 11.4519C1.66914 11.6 1.69665 11.7284 1.72416 11.8173L1.54991 11.6395L1.20141 12.0346L0.953793 11.7383C0.862083 11.1161 0.816227 10.4741 0.807056 9.85186C0.807056 9.65433 0.807056 9.45679 0.816227 9.26914L0.825398 9.23951C0.972136 8.91358 1.0455 8.74568 1.32064 8.54815C1.60494 8.34075 1.91676 8.29136 2.18272 8.4C2.21023 8.40988 2.25609 8.42963 2.27443 8.43951L2.73298 9.24939L2.75132 9.27902C2.87055 9.48642 2.98977 9.69383 3.09982 9.90124C3.23739 10.1482 3.37496 10.3951 3.52169 10.642L7.33686 17.3877L10.1891 22.5136C6.62152 21.6741 3.59506 19.0469 1.9993 15.4025C2.06349 15.4617 2.17355 15.5407 2.2836 15.6296ZM1.9993 10.7901C1.99012 10.8691 1.95344 10.9284 1.9351 10.9482C1.90759 10.9877 1.83422 11.0765 1.71499 11.0963C1.69665 11.0963 1.62328 11.1161 1.54991 11.0765C1.46737 11.037 1.43069 10.9679 1.41235 10.9383C1.36649 10.8593 1.35732 10.7901 1.35732 10.721C1.34815 10.6519 1.35732 10.5827 1.37566 10.5235C1.39401 10.4741 1.40318 10.4247 1.44903 10.3753C1.50406 10.3161 1.57743 10.3062 1.62328 10.2963C1.63245 10.2963 1.6508 10.2864 1.67831 10.2864C1.68748 10.2864 1.69665 10.2864 1.71499 10.2864C1.79753 10.2963 1.86173 10.3457 1.88007 10.3654C1.98095 10.4543 1.99012 10.5926 2.00847 10.6914C2.00847 10.7506 1.9993 10.7704 1.9993 10.7901ZM2.01764 11.4914C2.03598 11.363 2.09101 11.2741 2.17355 11.2148C2.22857 11.1753 2.30194 11.1556 2.37531 11.1457C2.38448 11.1457 2.40282 11.1457 2.42117 11.1457C2.54039 11.1556 2.6321 11.2247 2.65961 11.2543C2.72381 11.3136 2.7605 11.3728 2.84303 11.521C2.89806 11.6198 2.9164 11.679 2.9164 11.7086C2.93475 11.758 2.94392 11.8173 2.94392 11.8864C2.94392 11.9259 2.94392 12.0543 2.86138 12.1531C2.81552 12.2123 2.75132 12.2321 2.73298 12.242C2.60459 12.2914 2.48536 12.2519 2.43034 12.2321C2.3478 12.1926 2.30194 12.1432 2.23774 12.0741C2.17355 12.0049 2.10018 11.9259 2.05432 11.7877C2.02681 11.7086 1.99012 11.6099 2.01764 11.4914ZM14.637 1.2C15.2515 1.42716 15.8384 1.8321 16.242 2.31605L16.2695 2.34568C16.3062 2.38519 16.3429 2.43457 16.3795 2.47408C16.0219 2.51358 15.7101 3.11605 15.5908 3.51112C15.4808 3.88642 15.5175 4.12346 15.7101 4.22223L15.7651 4.24198C15.7926 4.25186 15.8201 4.25186 15.8476 4.25186C16.1686 4.25186 16.4437 3.73828 16.5538 3.51112C16.6088 3.3926 16.7097 3.13581 16.728 2.91852C16.8014 3.03704 16.8748 3.15556 16.9298 3.28395C17.1774 3.84692 17.2691 4.2321 17.3242 4.8642C17.0674 4.98272 16.8289 5.13087 16.5079 5.38766C16.4988 5.38766 16.4988 5.39754 16.4896 5.39754C16.4713 5.31852 16.4529 5.23951 16.4346 5.1605C16.2695 4.60741 15.8109 4.34074 15.4074 4.10371L15.3065 4.04445C15.0589 3.8963 14.8938 3.82716 14.7012 3.76791C14.7104 3.76791 14.7104 3.76791 14.7196 3.76791C14.8755 3.76791 15.0222 3.7284 15.169 3.65926C15.545 3.48149 15.7834 3.11605 15.8018 2.68149V2.58272C15.7926 1.92099 15.3616 1.43704 14.7563 1.39753C14.2794 1.36791 13.8942 1.63457 13.6741 2.11852C13.4815 2.61235 13.6007 3.13581 13.9767 3.48149C14.0317 3.53087 14.0959 3.58025 14.1693 3.61976C13.885 3.55062 13.6832 3.53087 13.3623 3.51112C13.2247 3.50124 13.0963 3.50124 12.9587 3.50124C12.5827 3.50124 12.0325 3.54074 11.5739 3.70865C10.9044 3.93581 10.4092 4.20247 9.99647 4.78519C9.88642 4.93334 9.81305 5.05186 9.75803 5.1605C9.62963 5.07161 9.49206 4.98272 9.36367 4.90371C9.06102 4.71605 8.74921 4.55803 8.42822 4.43951C8.50159 3.71852 8.58413 3.55062 8.95097 2.85926C9.28113 2.25679 9.86808 1.75309 10.6843 1.38766C11.2346 1.14074 11.684 0.992597 12.1242 0.923461C13.0229 0.804942 13.7566 0.883955 14.637 1.2ZM16.242 3.10618C16.2236 3.18519 16.1961 3.28395 16.1503 3.3926C16.0861 3.53087 16.0127 3.63951 15.9577 3.70865C15.9668 3.68889 15.9668 3.65926 15.976 3.62963C16.0402 3.40247 16.1594 3.20494 16.242 3.10618ZM15.3249 2.61235V2.68149C15.3157 2.91852 15.1781 3.11605 14.9764 3.21482C14.7563 3.32346 14.4995 3.28395 14.3069 3.11605C14.0959 2.91852 14.0317 2.6321 14.1418 2.35556C14.261 2.08889 14.4536 1.95062 14.7012 1.94074C14.7196 1.94074 14.7379 1.94074 14.7563 1.94074C15.0864 1.98025 15.3157 2.23704 15.3249 2.61235ZM9.54709 7.27408C9.99647 10.1778 10.4367 13.0914 10.8677 15.9062L10.9228 16.242C11.1337 17.6247 11.3446 19.0173 11.5556 20.4L11.8949 22.6321C11.5372 22.6025 11.1887 22.563 10.8402 22.4938L4.16367 10.3457C4.0261 10.0988 3.89771 9.85186 3.75097 9.60494C3.54004 9.21976 3.31993 8.81482 3.09982 8.42963L3.01729 8.27161C2.98977 8.22223 2.96226 8.17284 2.93475 8.13334L2.84303 7.96544C2.75132 7.80741 2.75132 7.80741 2.77884 7.5605C2.81552 7.24445 2.93475 7.02716 3.09982 6.77037C3.19154 6.62223 3.27408 6.50371 3.35662 6.4247C3.96191 5.80247 4.40212 5.60494 5.1358 5.28889L5.16332 5.27902C5.62187 5.08149 6.03457 5.0321 6.58483 5.01235C7.39189 4.98272 8.15309 5.20988 8.85009 5.6642C9.01517 5.77284 9.18942 5.89136 9.3545 6.00988C9.36367 6.07902 9.37284 6.16791 9.39118 6.28642C9.44621 6.61235 9.49206 6.94815 9.54709 7.27408ZM10.3541 7.46173C10.2991 7.13581 10.2533 6.80988 10.1982 6.48395C10.134 6.08889 10.1432 6.06914 10.3817 5.73334C10.7302 5.23951 11.1612 5.01235 11.7481 4.81482C12.2984 4.62716 12.9954 4.62716 13.3714 4.63704C13.7383 4.65679 13.9034 4.67655 14.2702 4.77531L14.3802 4.80494C14.6737 4.88396 14.8205 4.92346 15.1048 5.10124L15.2056 5.1605C15.5358 5.35803 15.921 5.58519 16.031 5.9605C16.0586 6.05926 16.0769 6.17778 16.1044 6.28642V6.30618C16.1136 6.35556 16.1228 6.39507 16.1319 6.44445V6.4642C16.1044 6.61235 16.0861 6.77037 16.0677 6.93828V6.96791C16.0586 7.02716 16.0494 7.0963 16.0402 7.15556L13.9125 22.6025C13.6924 22.6222 13.4723 22.6321 13.2522 22.6321C13.0871 22.6321 12.9129 22.6321 12.7478 22.6222L12.3901 20.3407C12.1608 18.8691 11.9316 17.3975 11.7023 15.9259C11.2529 13.1605 10.8035 10.2963 10.3541 7.46173ZM16.7372 6.93828C16.7464 6.86914 16.7556 6.79013 16.7647 6.72099C16.7831 6.57284 16.8014 6.40494 16.8289 6.26667C16.8473 6.21729 16.8748 6.19754 16.9481 6.13828C16.9757 6.11852 16.994 6.09877 17.0215 6.07902C17.5168 5.6642 17.8102 5.51605 18.4339 5.35803C18.8282 5.25926 19.14 5.22963 19.5161 5.26914L19.6078 5.27902C20.4423 5.35803 20.8642 5.39754 21.6529 5.84198C21.8822 5.97037 22.0656 6.10865 22.249 6.26667C22.8727 6.81976 23.212 7.30371 23.2028 8.24198C23.2028 8.35062 23.2028 8.44939 23.1937 8.55803V8.57778C23.1937 8.64692 23.1937 8.71605 23.1845 8.78519L16.1594 22.4148C15.6642 22.5531 15.1598 22.6519 14.6554 22.7111L16.7372 6.93828Z" fill="var(--ion-color-light)"/>
<path d="M9.45538 9.59506L9.51958 9.25926L9.42787 9.23951C8.93263 9.14074 8.53827 9.06173 8.1164 9.57531C7.96049 9.76296 7.87795 9.99012 7.79541 10.2272C7.74956 10.3457 7.71288 10.4543 7.66702 10.5531C7.59365 10.7012 7.52945 10.8395 7.45609 10.9877C7.31852 11.0568 7.17178 11.1259 7.03422 11.1852L7.0067 11.1951C6.82328 11.2741 6.6582 11.3432 6.66737 11.5012C6.66737 11.5506 6.66737 11.5605 7.18095 12.479L7.25432 12.6173C7.31852 12.7259 7.38272 12.8444 7.44691 12.9531L7.45609 12.9728C7.53863 13.1111 7.61199 13.2593 7.69453 13.3975C7.64868 13.3975 7.59365 13.3975 7.52945 13.3975C7.18095 13.4272 6.97919 13.5556 6.80494 13.9012C6.66737 14.158 6.70406 14.721 6.93333 14.958C7.04339 15.0765 7.17178 15.1259 7.31852 15.1259C7.41023 15.1259 7.50194 15.0963 7.60282 15.0568C7.79542 14.9679 7.97884 14.879 8.17143 14.7901C8.31817 14.721 8.4649 14.6519 8.61164 14.5827C8.66667 14.5531 8.73086 14.5333 8.79506 14.5037C8.98765 14.4148 9.19859 14.3259 9.33616 14.2272L9.41869 14.1679L9.40952 14.0593C9.40035 13.9802 9.39118 13.921 9.36367 13.842C9.26279 13.4667 9.15273 13.0914 9.05185 12.716L9.03351 12.6469C8.98765 12.4889 8.95097 12.3407 8.90511 12.1827C8.95097 12.1926 8.99683 12.2025 9.03351 12.2025C9.28113 12.2123 9.50123 12.1235 9.6388 11.9556C9.7672 11.7975 9.82222 11.5802 9.77637 11.3333C9.74885 11.1852 9.71217 11.0272 9.62046 10.8889C9.65714 10.9086 9.68466 10.9185 9.72134 10.9284C9.79471 10.9383 9.85891 10.9086 9.90476 10.8494C10.0515 10.6519 9.89559 10.1086 9.88642 10.1086C9.7672 9.77284 9.34533 9.76296 9.17108 9.78272C9.09771 9.79259 9.03351 9.79259 8.98765 9.80247C9.06102 9.73333 9.17108 9.6642 9.30864 9.56543L9.45538 9.59506ZM9.42787 10.2469C9.43704 10.2765 9.45538 10.3556 9.46455 10.4247C9.29947 10.2963 8.99683 10.1185 8.70335 10.4049C8.62081 10.484 8.62998 10.563 8.64833 10.6025C8.68501 10.7012 8.78589 10.7111 8.83175 10.7111C8.84092 10.7111 8.85009 10.7111 8.85926 10.7111C8.95097 10.721 9.01517 10.7802 9.10688 10.8494L9.15273 10.879C9.25362 10.958 9.2903 11.0469 9.31781 11.2049C9.33616 11.284 9.33616 11.3926 9.26279 11.4716C9.20776 11.5407 9.09771 11.5802 8.96931 11.5704C8.91429 11.5704 8.83175 11.5407 8.75838 11.5111L8.61164 10.9877C8.57496 10.8593 8.53827 10.7309 8.49242 10.6025L8.45573 10.484L8.74004 10.2864C8.88677 10.1778 8.90512 10.1679 9.11605 10.1481C9.26279 10.158 9.40035 10.1877 9.42787 10.2469ZM8.42822 10.0494C8.41905 10.0988 8.40988 10.158 8.40988 10.2074L8.39153 10.484L8.29065 10.5235C8.19894 10.5531 8.10723 10.5926 8.02469 10.6222C8.07055 10.5333 8.10723 10.4346 8.14392 10.3457C8.20811 10.1778 8.27231 10.0099 8.37319 9.90123C8.49242 9.77284 8.5933 9.7037 8.71252 9.67407C8.53827 9.81235 8.44656 9.93086 8.42822 10.0494ZM7.75873 13.6543C7.82293 13.6543 7.86878 13.6642 7.94215 13.6938C7.99718 13.7136 8.09806 13.763 8.17143 13.6642C8.23563 13.5753 8.18977 13.4864 8.16226 13.437L8.14392 13.4074C8.05221 13.2 7.94215 12.9827 7.85044 12.7951C7.79541 12.6864 7.74039 12.5778 7.69453 12.479L7.62116 12.3407C7.5478 12.1827 7.38272 11.8469 7.29101 11.6691C7.30935 11.6593 7.32769 11.6494 7.34603 11.6395C7.36437 11.6296 7.37355 11.6296 7.38272 11.6198C7.5478 11.5309 7.7037 11.442 7.86878 11.3432L7.88713 11.3333C7.98801 11.2741 8.08889 11.2148 8.18977 11.1654C8.21728 11.2642 8.2448 11.4025 8.28148 11.5309L8.33651 11.7481C8.37319 11.8864 8.39153 11.9556 8.40071 11.9951L8.43739 12.1333C8.49242 12.3605 8.54744 12.5877 8.60247 12.8148C8.68501 13.1506 8.76755 13.4963 8.85009 13.8321C8.85009 13.8519 8.85926 13.8716 8.85926 13.8815C8.76755 13.9407 8.6575 14 8.55661 14.0494C8.50159 14.079 8.45573 14.0988 8.40988 14.1284C8.29982 14.1877 8.19894 14.2469 8.08889 14.3062L8.06138 14.316C7.91464 14.3951 7.7679 14.484 7.63034 14.563C7.52028 14.6222 7.47443 14.6025 7.4194 14.5432C7.32769 14.4346 7.30018 14.079 7.3552 13.9506C7.45608 13.7235 7.53862 13.6741 7.7037 13.6642C7.72205 13.6543 7.74039 13.6543 7.75873 13.6543Z" fill="var(--ion-color-light)"/>
<path d="M23.1295 11.1062L24.2758 12.1037L24.4959 11.7877L23.3587 10.7901L23.1295 11.1062Z" fill="var(--ion-color-light)"/>
<path d="M18.5531 9.61482L18.8741 9.7037L19.0667 8.95309L19.7728 9.14074L19.8554 8.80494L19.1584 8.61729L19.3601 7.84691L19.0392 7.75803L18.8374 8.5284L18.2413 8.37037L18.1587 8.70617L18.7549 8.8642L18.5531 9.61482Z" fill="var(--ion-color-light)"/>
<path d="M16.8564 15.3136L16.9757 15.2247C17.0582 15.1654 17.1866 15.037 17.2967 14.9383C17.3333 14.8988 17.37 14.8691 17.3975 14.8494C17.7735 14.5037 18.1496 14.1482 18.5256 13.8025L18.5623 13.763C19.085 13.279 19.6261 12.7753 20.1672 12.2914C20.2497 12.2222 20.369 12.1136 20.3139 11.9556C20.2589 11.8173 20.1397 11.8074 20.0113 11.8074H19.9379C19.8737 11.8074 19.727 11.8074 19.5436 11.8074C19.2959 11.8074 18.8924 11.8074 18.6448 11.7975C18.6815 11.7383 18.7182 11.679 18.7549 11.6198C18.7824 11.5803 18.8007 11.5407 18.8282 11.5111L18.8466 11.4815C19.2593 10.7803 19.2593 10.7506 19.2684 10.6914L19.2776 10.5432L19.1584 10.484C19.0208 10.4148 18.975 10.4642 18.4155 11.0173L18.3513 11.0765C18.2229 11.1951 18.1037 11.3136 17.9845 11.4321L17.9661 11.4519C17.7185 11.6889 17.4709 11.9358 17.2141 12.1728C17.1041 12.2716 16.994 12.3803 17.049 12.5383C17.1041 12.6864 17.2233 12.6864 17.3884 12.6963H17.4434C17.581 12.7062 17.7277 12.7062 17.8744 12.7161C18.0395 12.7259 18.2229 12.7259 18.4064 12.7358C18.0579 13.1704 17.7185 13.6247 17.3884 14.0691L17.1224 14.4247C16.8931 14.7309 16.7922 14.8593 16.7372 14.9482C16.673 15.0568 16.673 15.1358 16.7556 15.2247L16.8564 15.3136ZM18.2963 11.8667V11.8765L18.2871 11.8864C18.2688 11.9358 18.2413 12.0049 18.278 12.0938C18.2963 12.1531 18.333 12.1926 18.3972 12.2222C18.4614 12.2519 18.5989 12.2617 19.3143 12.2617C19.3418 12.2617 19.3693 12.2617 19.3877 12.2617C19.0758 12.5877 18.764 12.9235 18.4706 13.2296C18.5714 13.0815 18.6723 12.9333 18.7732 12.7852C18.8282 12.7062 18.9016 12.6074 18.8557 12.4889C18.8099 12.3704 18.709 12.3605 18.6173 12.3506C18.4339 12.3407 18.2321 12.3309 18.0579 12.321H18.0395C17.9937 12.321 17.9478 12.321 17.9019 12.3111C18.0303 12.163 18.1587 12.0148 18.2963 11.8667Z" fill="var(--ion-color-light)"/>
<path d="M22.4783 12.9926C22.2032 13.042 22.0106 13.1901 21.9372 13.4173C21.8822 13.5852 21.9189 13.7136 21.9647 13.7926C22.0748 13.9802 22.3224 14.0691 22.7168 14.0691C22.7351 14.0691 22.7534 14.0691 22.7718 14.0691H22.836C23.2395 14.0395 23.478 13.9309 23.5422 13.7333C23.5697 13.6642 23.588 13.516 23.4688 13.3383C23.2578 13.0222 22.8085 12.9235 22.4783 12.9926ZM22.4875 13.4272C22.6617 13.3975 22.891 13.437 23.0011 13.516C22.946 13.5358 22.8635 13.5457 22.7259 13.5556H22.6801C22.4691 13.5654 22.3316 13.5358 22.2857 13.516C22.3132 13.4864 22.3774 13.4469 22.4875 13.4272Z" fill="var(--ion-color-light)"/>
<path d="M12.3626 13.3284C12.491 13.3876 13.0321 13.3975 13.3072 13.3975C13.4723 13.3975 13.7566 13.3876 13.8667 13.3481C14.3619 13.1901 14.5086 13.0518 14.9122 12.5481C15.0864 12.3309 15.0956 12.1136 15.1139 11.8765V11.837C15.1139 11.7877 15.1231 11.7481 15.1231 11.7086C15.1414 11.5111 15.1506 11.3136 15.0956 11.0864C15.0222 10.7901 14.9213 10.4938 14.7196 10.3259C14.6829 10.2963 14.5728 10.2074 14.4628 10.2864C14.4353 10.3062 14.4078 10.3457 14.4078 10.3457C14.3802 10.3852 14.3802 10.4346 14.3894 10.4444C14.4078 10.5531 14.4261 10.6321 14.4444 10.6815C14.4536 10.721 14.4628 10.7309 14.4811 10.7704C14.5178 10.8691 14.5362 10.9185 14.5362 10.9679C14.5362 11.0173 14.5178 11.0667 14.472 11.1457C14.3711 11.3235 14.261 11.4321 14.1326 11.5506C14.1051 11.4321 14.0776 11.3235 14.0593 11.2247C14.0501 11.1852 14.0409 11.1358 14.0317 11.0864V11.0765C13.9951 10.9185 13.9584 10.7407 13.9125 10.6321C13.8667 10.5136 13.8025 10.4049 13.7566 10.2963C13.6924 10.158 13.619 10.0197 13.564 9.88148C13.564 9.8716 13.5548 9.85185 13.5457 9.83209C13.4906 9.66419 13.3806 9.34814 13.1513 9.43703C12.9954 9.49629 12.6653 10.0889 12.5919 10.2074C12.5644 10.2667 12.5277 10.316 12.491 10.3753C12.3443 10.6321 12.1792 10.9086 12.1242 11.2148L12.115 11.2839C12.1058 11.3432 12.1058 11.4321 12.1058 11.521C12.0783 11.5012 12.0416 11.4716 12.0141 11.4321C11.8123 11.2346 11.849 11.116 11.9224 10.8494C11.9407 10.7901 11.9591 10.7309 11.9682 10.6617L11.9958 10.4741C11.9958 10.4247 11.9774 10.3753 11.9224 10.3358C11.8582 10.2864 11.7848 10.2963 11.7115 10.3457C11.5005 10.5037 11.363 10.958 11.3538 11.1654C11.3354 11.4518 11.3721 12.0543 11.473 12.3309C11.5922 12.7654 11.9499 13.1407 12.3626 13.3284ZM14.1601 12.0642C14.3894 11.916 14.5637 11.7975 14.7379 11.5506C14.7563 11.521 14.7746 11.4914 14.7929 11.4617C14.8205 11.5704 14.8021 11.6691 14.7929 11.7975C14.7929 11.837 14.7838 11.8667 14.7838 11.9062V11.9358C14.7746 12.1037 14.7654 12.2025 14.6645 12.3012C14.2885 12.6864 14.1968 12.7556 13.775 12.8642C13.6099 12.9037 12.6102 12.8938 12.491 12.8642C12.1608 12.7457 11.8857 12.5086 11.7757 12.2518C11.7298 12.1432 11.7023 11.9358 11.6839 11.7481C11.7206 11.7876 11.7573 11.8272 11.8123 11.8667C12.0233 12.0346 12.17 12.0938 12.2709 12.0741C12.3351 12.0642 12.3809 12.0148 12.4085 11.9556C12.4268 11.8963 12.4268 11.837 12.436 11.7185C12.436 11.6691 12.436 11.6 12.4451 11.5704L12.4543 11.521C12.5002 11.3333 12.6377 11.1358 12.7753 10.9481C12.812 10.8988 12.8395 10.8593 12.867 10.8099C12.9404 10.7012 13.1055 10.4839 13.2063 10.3753C13.2155 10.3951 13.2339 10.4247 13.243 10.4642C13.2522 10.4839 13.2614 10.5037 13.2614 10.5136C13.3256 10.642 13.3989 10.7605 13.4631 10.8691C13.509 10.9481 13.564 11.037 13.6099 11.116C13.6374 11.1753 13.6741 11.3037 13.7016 11.4123V11.4222C13.7108 11.4617 13.7199 11.5012 13.7383 11.5407C13.7841 11.6988 13.83 11.8568 13.8667 11.9951L13.9217 12.2123L14.1601 12.0642Z" fill="var(--ion-color-light)"/>
<path d="M14.3069 8.04445C14.1601 8.1926 14.0317 8.16297 13.7383 8.0642L13.6466 8.03457L13.5548 8.37037L13.6374 8.4C13.775 8.44939 13.9217 8.49877 14.0776 8.49877C14.2427 8.49877 14.3894 8.42963 14.5178 8.30124C14.7471 8.07408 14.848 7.81729 14.8388 7.53087C14.8296 7.38272 14.6921 7.18519 14.6003 7.10618C14.3894 6.94815 14.1968 6.95803 14.0226 6.97778C13.9767 6.97778 13.94 6.98766 13.885 6.98766C13.885 6.96791 13.885 6.95803 13.885 6.9284V6.89877C13.885 6.87902 13.885 6.84939 13.885 6.81976C13.885 6.71112 13.885 6.66173 13.885 6.6321C13.9492 6.61235 14.1235 6.60247 14.3986 6.60247H14.4353C14.472 6.60247 14.4995 6.60247 14.5178 6.60247L14.6003 6.5926V6.24692L14.4995 6.25679C14.4811 6.25679 14.4628 6.25679 14.4353 6.25679H14.3894C14.0868 6.25679 13.8208 6.25679 13.6832 6.34568L13.6741 6.35556C13.5365 6.4642 13.5457 6.68149 13.5457 6.82963C13.5457 6.84939 13.5457 6.87902 13.5457 6.89877V6.9284C13.5457 7.01729 13.5457 7.10618 13.5824 7.21482L13.619 7.30371L13.7108 7.32346C13.83 7.34321 13.9309 7.33334 14.0317 7.32346C14.1785 7.31358 14.2794 7.30371 14.3894 7.38272C14.4261 7.41235 14.4903 7.53087 14.4995 7.55062C14.5362 7.7284 14.472 7.88642 14.3069 8.04445Z" fill="var(--ion-color-light)"/>
<path d="M20.4423 8.43952C20.5432 8.37039 20.7175 8.26175 20.8825 8.16298C20.6533 8.65681 20.424 9.17039 20.2131 9.67409C20.1489 9.82224 20.1305 9.83212 20.103 9.83212L20.048 9.81236C19.9012 9.77286 19.8187 9.74323 19.7637 9.73335H19.7545L19.7178 9.82224L19.7453 9.72347L19.6261 9.69385L19.6169 9.7136C19.5894 9.7136 19.5711 9.73335 19.5436 9.7531L19.461 9.82224L19.4885 9.93088C19.4977 9.97039 19.5161 10 19.5344 10.0099V10.0296L19.6353 10.0593C19.6903 10.079 19.7362 10.0889 19.7912 10.1087C19.8646 10.1383 19.9471 10.158 20.0205 10.1679L20.7083 10.3654L20.8092 10.0395L20.4515 9.93088C20.4698 9.89138 20.4974 9.85187 20.5157 9.80249C20.7358 9.27903 20.9743 8.7457 21.2127 8.23212L21.3228 7.9852C21.3594 7.90619 21.4328 7.75804 21.3319 7.6494C21.2861 7.60002 21.2127 7.57039 21.1393 7.59014C21.0935 7.60002 21.0293 7.62965 20.2314 8.14323L20.0021 8.29138L20.2131 8.56792L20.4423 8.43952Z" fill="var(--ion-color-light)"/>
<path d="M13.2889 14.484C13.9584 14.4741 14.9672 14.0395 15.1048 13.2395L15.1231 13.1407L14.8021 13.0815L14.7838 13.1802C14.6829 13.7827 13.7841 14.158 13.2339 14.1481C12.6102 14.1284 12.2159 13.9901 11.6931 13.2593L11.6381 13.1802L11.3813 13.3975L11.4363 13.4765C12.0416 14.3062 12.5277 14.4741 13.2247 14.4938C13.243 14.484 13.2614 14.484 13.2889 14.484Z" fill="var(--ion-color-light)"/>
<path d="M12.3993 7.9358L12.4176 8.54815L12.7386 8.53827L12.7203 7.91605L13.3531 7.88642L13.3347 7.54074L12.7019 7.57037L12.6744 6.83951L12.3534 6.85926L12.381 7.59013L11.8032 7.60988L11.8123 7.95556L12.3993 7.9358Z" fill="var(--ion-color-light)"/>
</svg>
