<svg width="42" height="43" viewBox="0 0 42 43" fill="none" xmlns="http://www.w3.org/2000/svg">
<path d="M21 42.5792L20.0688 42.1146C16.404 40.1899 12.8512 38.0594 9.42708 35.7333C2.54792 31.1458 0.397917 9.55209 0.166667 7.10417L0 5.28125L21 0.616669L41.9917 5.28125L41.8333 7.10417C41.6104 9.55209 39.4604 31.1458 32.5813 35.7333C29.1547 38.0632 25.599 40.1972 21.9313 42.125L21 42.5792ZM4.51042 8.54792C5.47292 17.125 8.06458 29.8167 11.7396 32.2667C16.1146 35.1833 19.4479 37.0583 21 37.8917C22.5438 37.0583 25.8958 35.1833 30.2604 32.2667C33.9354 29.8167 36.5271 17.1271 37.4896 8.54792L21 4.88334L4.51042 8.54792Z" fill="var(--ion-color-light)"/>
</svg>
