<svg width="34" height="38" viewBox="0 0 34 38" fill="none" xmlns="http://www.w3.org/2000/svg">
<path d="M28.6815 10.8332L30.1093 7.69806L26.9432 8.98624L27.7347 9.82434L25.4377 11.8885C25.236 11.485 24.8014 10.6004 24.7393 10.4917C24.7238 10.4607 24.0409 9.31217 23.9168 9.12593C23.8702 9.06385 23.8392 9.00176 23.7926 8.93968C23.684 8.76896 23.5598 8.58272 23.4356 8.41199L23.3115 8.25679C23.1873 8.08607 23.0476 7.89982 22.9235 7.74462C22.6596 7.41869 22.4113 7.12381 22.194 6.89101C21.9302 6.59612 20.9834 5.57178 19.7263 4.70265C19.54 4.56296 18.6399 4.03527 18.0656 3.70935L15.9859 0L15.8307 2.17284L13.6113 0.217284L14.915 2.2194L14.1079 2.04868L14.0459 2.26596L14.4804 2.4522L14.6356 2.52981L14.8529 16.0325L11.1125 12.3386L13.1457 11.9196L10.1347 10.709L11.0349 9.7933L12.8818 9.14145L10.0416 8.86208L8.75344 10.1347L5.54074 7.26349C5.61834 7.07725 5.64938 6.89101 5.63386 6.67372C5.60282 6.36332 5.44762 6.08395 5.19929 5.89771C4.96649 5.71146 4.6716 5.61834 4.3612 5.6649C3.74039 5.72698 3.27478 6.30123 3.35238 6.93757C3.38342 7.24797 3.53862 7.52734 3.78695 7.71358C3.98871 7.86878 4.23704 7.96191 4.48536 7.96191C4.53192 7.96191 4.56296 7.96191 4.60952 7.96191C4.68712 7.94638 4.76473 7.93086 4.82681 7.91534L7.40317 11.485L5.77354 13.0836L6.02187 16.1411L6.61164 14.2787L8.03951 12.8353L8.90864 16.048L9.31217 13.782L14.7132 20.4557L14.7287 21.5111L11.4695 24.4444C11.3298 24.3358 11.1436 24.2892 10.9728 24.3048C10.6004 24.3513 10.321 24.6772 10.352 25.0497C10.1658 24.9566 9.9485 24.9101 9.74674 24.9411C9.15697 25.0032 8.7224 25.5464 8.78448 26.1517C8.78448 26.1982 8.8 26.2448 8.8 26.2758L5.57178 26.6173L7.04621 27.564L0 27.9675L5.09065 30.5439L6.39436 35.0758L7.97743 28.4952L8.67584 30.1714L9.46737 27.0053C9.60705 27.0674 9.74674 27.0984 9.88642 27.0984C9.93298 27.0984 9.96402 27.0984 10.0106 27.0984C10.6004 27.0363 11.0349 26.4931 10.9728 25.9033C10.9573 25.8257 10.9418 25.7481 10.9263 25.6861C10.9728 25.7016 11.0194 25.7016 11.0815 25.7016C11.1125 25.7016 11.128 25.7016 11.1591 25.7016C11.5471 25.655 11.8265 25.3136 11.7799 24.9256C11.7644 24.8169 11.7333 24.7083 11.6713 24.6152L14.7753 21.8215L15.0081 34.6413C14.9771 34.6568 14.9305 34.6878 14.8995 34.7034L14.8374 34.7499C14.558 34.9206 14.2787 35.0293 13.9683 35.1534C13.8907 35.1845 13.8286 35.2155 13.751 35.2466L13.8286 35.4638L14.6977 35.2155C14.7443 35.2 14.7908 35.1845 14.8529 35.169C14.915 35.1534 14.9926 35.1379 15.0702 35.1069L13.9683 37.1866L16.0945 34.9672L16.3739 37.1711L18.1898 33.3531C18.4691 33.1513 18.764 32.9185 19.0744 32.6702C19.121 32.6392 19.1675 32.6081 19.2141 32.5616C19.3383 32.4684 19.4624 32.3753 19.5556 32.2822C19.8504 32.0183 20.1298 31.7545 20.4092 31.4907L20.4868 31.413C20.8593 31.0716 21.1541 30.7767 21.5111 30.3732C21.8215 30.0628 22.0543 29.7989 22.2406 29.5817L22.2561 29.5972C22.2716 29.6127 22.3026 29.6282 22.3492 29.6748C22.5975 29.9697 22.8459 30.2801 23.0787 30.575C23.2494 30.7767 23.4201 30.994 23.5753 31.1958L23.6063 31.2268L28.3711 32.158L26.9898 27.8744L25.3757 26.2758C25.3291 26.2293 25.267 26.1672 25.2049 26.1051C25.0653 25.9654 24.9256 25.8258 24.8169 25.7326C24.7859 25.7016 24.7548 25.6705 24.7393 25.655C24.8014 25.5309 24.8635 25.3912 24.9256 25.2515L24.9566 25.1739C25.1429 24.7859 25.267 24.4134 25.4067 24.0254C25.4377 23.9168 25.4843 23.8236 25.5153 23.715C25.7016 23.2028 25.8413 22.7527 25.9965 22.1785C26.1362 21.6663 26.2293 21.2317 26.3379 20.673C26.431 20.1453 26.4621 19.6642 26.4776 19.1365C26.4776 19.0744 26.4776 19.0123 26.4776 18.9347C26.4776 18.764 26.4931 18.5933 26.4776 18.4381C26.4621 17.8328 26.4155 17.212 26.369 16.6067V16.5757C26.369 16.5136 26.3534 16.436 26.3534 16.3739C26.3379 16.1721 26.3224 15.9704 26.3069 15.7996C26.2914 15.6444 26.2603 15.4892 26.2293 15.3496C26.1982 15.1478 26.1672 14.9305 26.1362 14.7132C26.1206 14.6511 26.1206 14.5735 26.1051 14.5115C26.0896 14.3563 26.0586 14.1855 26.043 14.0303C26.012 13.8907 25.981 13.7354 25.9344 13.5802C25.9189 13.5182 25.9034 13.4406 25.8878 13.3785C25.8258 13.1146 25.7637 12.8818 25.6861 12.6335L25.6705 12.5869C25.655 12.5559 25.655 12.5093 25.6395 12.4628C25.6085 12.3541 25.5774 12.2145 25.5309 12.1213L27.8899 9.99506L28.6815 10.8332ZM6.37884 33.3841L5.46314 30.1093L1.70723 28.1693L7.26349 27.8123L7.4963 27.952L7.54286 27.9831L7.60494 28.1848L6.37884 33.3841ZM8.62928 29.054L8.07055 27.7192L8.05503 27.6882L6.67372 26.819L8.86208 26.5862C8.92416 26.7104 9.00176 26.819 9.12593 26.9122C9.14145 26.9277 9.14145 26.9277 9.15697 26.9277L8.62928 29.054ZM9.93298 26.5862C9.74674 26.6018 9.57601 26.5552 9.43633 26.4466C9.28113 26.3379 9.18801 26.1827 9.17249 25.9965C9.12593 25.6395 9.40529 25.3136 9.7933 25.267C9.97954 25.2515 10.1503 25.2981 10.2899 25.4067C10.4452 25.5153 10.5383 25.6705 10.5538 25.8568C10.5848 26.2138 10.321 26.5397 9.93298 26.5862ZM11.1436 25.3446C11.0504 25.3601 10.9418 25.3291 10.8642 25.267C10.7866 25.2049 10.7245 25.1118 10.709 25.0032C10.678 24.7859 10.8332 24.5996 11.0504 24.5841C11.066 24.5841 11.0815 24.5841 11.097 24.5841C11.1901 24.5841 11.2677 24.6152 11.3298 24.6617C11.4074 24.7238 11.4695 24.8169 11.485 24.9256C11.5005 25.1273 11.3453 25.3291 11.1436 25.3446ZM17.7552 4.206L18.2674 4.50088L18.6864 4.73369L19.0899 4.98201C19.2141 5.05961 19.3072 5.12169 19.4159 5.18377C19.5556 5.26138 20.7041 6.05291 20.8593 6.19259C21.7284 6.90653 22.3802 7.7291 22.5665 7.97743C22.7217 8.17919 22.8924 8.41199 23.0787 8.67584C23.1718 8.8 23.2649 8.9552 23.3425 9.09488L23.4201 9.23457C23.4977 9.35873 23.5753 9.51393 23.6684 9.65361C23.6995 9.7157 23.7305 9.76226 23.7616 9.80882C23.8392 9.96402 24.3048 10.8797 24.3203 10.9108C24.3358 10.9573 24.6928 11.7954 24.8169 12.1058L23.9168 13.0215C23.7616 12.4783 23.6374 12.0437 23.5132 11.6713C23.2649 10.8797 22.8614 10.0106 22.3026 9.00176C22.225 8.8776 22.163 8.73792 22.0854 8.61376C21.9457 8.36543 21.8215 8.17919 21.6818 7.99295L21.6198 7.89982C21.3869 7.55838 21.1541 7.21693 20.8903 6.90653L20.7506 6.7358C20.5023 6.44092 19.6642 5.63386 19.4624 5.47866C19.4159 5.44762 19.3693 5.40106 19.3383 5.37002C19.2296 5.2769 19.1055 5.16825 18.9813 5.07513L18.5933 4.79577L17.8794 4.31464L17.6931 4.19048L17.7552 4.206ZM24.1496 19.509C24.1185 19.7573 24.103 20.0056 24.072 20.2695C24.0254 20.7817 23.9788 21.2007 23.9168 21.6353C23.746 22.5665 23.5287 23.4511 23.2339 24.2737L17.8949 19.0899L23.746 13.9217C23.8857 14.3097 23.9633 14.5891 24.0254 15.0547C24.0409 15.1478 24.0564 15.2409 24.072 15.3496C24.134 15.7686 24.1806 16.1877 24.1961 16.5757V16.855C24.2116 17.7086 24.2427 18.6243 24.1496 19.509ZM16.2342 1.08642L17.3827 3.24374L16.6688 2.85573L16.1411 2.35908L16.2342 1.08642ZM15.6755 2.4522L15.303 2.28148L15.0547 1.86243L15.6755 2.4522ZM15.2409 2.82469L16.0635 3.2903L16.7464 3.72487C16.9171 3.83351 17.0723 3.94215 17.2275 4.06631C17.2896 4.11287 17.3517 4.15944 17.4138 4.206C17.6776 4.39224 18.8261 5.3545 19.1675 5.71146L19.3693 5.91323C19.7263 6.28571 20.0522 6.68924 20.3781 7.09277L20.4713 7.21693C20.6575 7.44974 20.8282 7.66702 21.0145 7.96191C21.1231 8.11711 21.2162 8.27231 21.3249 8.42751C22.1164 9.6381 22.6596 10.6935 23.0011 11.6247C23.1718 12.1058 23.3735 12.6645 23.6063 13.363L17.6776 18.8571L15.1323 16.2653L14.8995 2.65397L15.2409 2.82469ZM5.13721 7.24797L4.85785 7.4963C4.78025 7.54286 4.68712 7.5739 4.594 7.5739C4.39224 7.58942 4.19048 7.54286 4.03527 7.4187C3.86455 7.29453 3.75591 7.10829 3.74039 6.89101C3.69383 6.47196 4.00423 6.08395 4.42328 6.03739C4.45432 6.03739 4.48536 6.03739 4.50088 6.03739C4.67161 6.03739 4.84233 6.09947 4.98201 6.20811C5.15273 6.33227 5.26138 6.51852 5.2769 6.7358C5.29242 6.90653 5.24586 7.09277 5.13721 7.24797ZM5.2769 8.03951C5.40106 7.96191 5.52522 7.86878 5.60282 7.74462L5.61834 7.7291L8.53615 10.352L7.58942 11.2832L5.2769 8.03951ZM6.5806 13.9527L6.56508 13.9683L6.33228 14.6822L6.20811 13.0526L10.0571 9.26561L11.6402 9.42081L10.7711 9.73122L6.5806 13.9527ZM9.23457 13.0681L9.12593 13.037L9.21905 13.1457L9.01728 14.2631L8.53615 12.4783L9.85538 11.128L11.6402 11.842L10.5538 12.0748L10.321 11.842L10.4452 13.3785L9.80882 13.2233L9.23457 13.0681ZM10.0416 14.0303L11.0349 14.3097L11.1591 14.3407L15.8462 19.4004L16.0169 19.2607L11.3298 14.2011L11.3143 12.9284L22.6596 24.3824C22.4578 24.7859 22.2561 25.1739 22.0078 25.6085C21.5887 26.3069 21.1386 26.9122 20.7196 27.4709L10.0416 14.0303ZM15.3185 21.061L15.0702 21.2938L15.0547 20.7506L15.3185 21.061ZM14.9616 35.6501L15.4116 34.9827L15.6444 34.8741C15.7531 34.8275 15.8617 34.781 15.9704 34.7344C16.0014 34.7189 16.0324 34.7189 16.048 34.7034V34.7189L14.9616 35.6501ZM15.9704 33.7877L15.8307 33.8963C15.691 33.9894 15.5668 34.0825 15.4272 34.1601L15.2099 21.9767L15.5668 21.6353L20.9524 28.4487L20.7972 28.697C20.642 28.8988 20.5178 29.085 20.3781 29.2557C19.9746 29.8145 19.6487 30.249 19.1675 30.8078C19.0123 30.994 18.8571 31.1647 18.6864 31.351C18.2984 31.77 17.9259 32.1425 17.5224 32.546L17.4758 32.5926C17.243 32.8254 17.0102 33.0116 16.7619 33.1979L16.6222 33.3065C16.4205 33.4772 16.2032 33.6325 15.9704 33.7877ZM16.5446 36.1467L16.467 34.7034L16.8705 34.2222C17.0568 34.0825 17.243 33.9584 17.4138 33.8497C17.4448 33.8342 17.4758 33.8187 17.5069 33.7877C17.5379 33.7721 17.569 33.7566 17.6 33.7256L16.5446 36.1467ZM24.879 26.5707C24.9256 26.6328 24.9877 26.6794 25.0342 26.7259L26.4 28.0607L27.4709 31.351L23.7771 30.637C23.6374 30.4663 23.4977 30.2956 23.3735 30.1404C23.1563 29.8765 22.9545 29.6282 22.7372 29.3644C22.7062 29.3333 22.6907 29.3023 22.6596 29.2868L22.6751 29.2713C22.8614 29.0074 23.0942 28.666 23.2183 28.4797C23.5908 27.9365 23.6995 27.7503 23.8236 27.533C23.8857 27.4243 23.9478 27.3157 24.0409 27.1605C24.103 27.0519 24.1806 26.8966 24.2737 26.7259C24.3513 26.5862 24.4134 26.431 24.491 26.3069C24.5065 26.2914 24.522 26.2603 24.522 26.2448C24.5376 26.2603 24.5531 26.2603 24.5686 26.2758C24.6617 26.3379 24.7704 26.4621 24.879 26.5707ZM25.5929 14.2942C25.6085 14.4183 25.624 14.558 25.6395 14.7132C25.6395 14.7753 25.655 14.8374 25.655 14.8995C25.6705 15.0857 25.7016 15.2875 25.7171 15.4737C25.7326 15.6134 25.7481 15.7376 25.7637 15.8772C25.7792 16.0325 25.7792 16.2032 25.7947 16.3739C25.7947 16.436 25.7947 16.4981 25.7947 16.5601V16.5912C25.8257 17.1189 25.8413 17.6776 25.8568 18.2208C25.8568 18.345 25.8568 18.5002 25.8413 18.6554C25.8413 18.7175 25.8413 18.7795 25.8413 18.8416C25.8257 19.3072 25.8102 19.7263 25.7326 20.1764C25.655 20.673 25.5774 21.061 25.4843 21.4956C25.3757 21.9922 25.267 22.3802 25.1273 22.8303C25.0963 22.9235 25.0653 23.0166 25.0342 23.1097C24.9256 23.4511 24.8325 23.7771 24.7083 24.1185L24.6772 24.1806C24.6152 24.3668 24.5531 24.5065 24.491 24.6617C24.4755 24.7083 24.4444 24.7549 24.4289 24.8014C24.3979 24.8635 24.3668 24.9101 24.3358 24.9721C24.1651 25.3291 24.0564 25.5929 23.9633 25.8102C23.6995 26.3845 23.6529 26.5086 23.2649 27.1605C23.2183 27.2226 23.1718 27.3002 23.1252 27.3933C22.9855 27.6416 22.7372 28.0762 22.2406 28.6815C21.9767 29.0384 21.7594 29.3023 21.5111 29.5972L21.449 29.6593C21.2473 29.8921 21.03 30.1249 20.8282 30.3577C20.7661 30.4353 20.673 30.5129 20.5954 30.5905C20.5644 30.6215 20.5333 30.6526 20.5023 30.6836C20.3626 30.8233 20.2229 30.9474 20.0832 31.0716L18.5157 32.2667L18.0035 32.5926C17.9725 32.6081 17.9259 32.6392 17.8949 32.6547C17.8483 32.6857 17.7707 32.7168 17.6931 32.7323C17.8794 32.5926 18.0656 32.4684 18.2363 32.3132L18.345 32.2201C18.5312 32.0649 18.7019 31.9252 18.8727 31.77L18.9813 31.6614C19.1831 31.4751 19.3538 31.3044 19.5556 31.0871L19.5866 31.0406C19.897 30.6681 20.2074 30.3111 20.5023 29.9231C20.642 29.7369 20.7661 29.5817 20.8903 29.4109C21.2628 28.8832 21.5111 28.4642 21.837 27.952C21.9457 27.7968 22.0388 27.6261 22.163 27.4243L22.3026 27.176C22.7527 26.3224 23.0321 25.8102 23.4046 24.9101C23.8547 23.7926 24.1961 22.5199 24.3979 21.1231C24.46 20.673 24.5065 20.2074 24.5376 19.8349C24.5531 19.6021 24.5686 19.3693 24.5996 19.1365C24.6772 18.2984 24.6772 17.4448 24.6617 16.6067V16.3584C24.6617 15.9704 24.6152 15.5668 24.5841 15.1788C24.5686 15.0857 24.5686 14.9926 24.5531 14.915C24.5065 14.4183 24.4444 14.17 24.3358 13.7354L25.2515 12.7266C25.267 12.7887 25.2825 12.8818 25.2981 12.9439C25.3136 12.9905 25.3136 13.0215 25.3136 13.0526L25.3291 13.0991C25.3757 13.3164 25.4222 13.5337 25.4688 13.751C25.4843 13.8131 25.4843 13.8751 25.4998 13.9217C25.5464 14.0459 25.5619 14.1855 25.5929 14.2942ZM27.6261 9.21905L29.3178 8.48959L28.5728 10.1968L27.6261 9.21905Z" fill="#CAC4D0"/>
<path d="M32.3908 11.1746L31.413 12.8353L32.3908 14.527L33.3686 12.8663L32.3908 11.1746ZM32.3598 13.8131L31.8166 12.8663L32.3598 11.9506L32.903 12.8974L32.3598 13.8131Z" fill="#CAC4D0"/>
<path d="M27.1295 4.29914L26.0741 2.76263L25.236 4.39226L26.2914 5.92877L27.1295 4.29914ZM25.7637 4.36122L26.1672 3.56969L26.6949 4.33018L26.2914 5.12172L25.7637 4.36122Z" fill="#CAC4D0"/>
<path d="M29.1471 18.9348L29.9541 20.1919L30.606 18.8727L29.7989 17.6155L29.1471 18.9348ZM30.2646 18.9192L29.9231 19.5556L29.4885 18.9503L29.83 18.314L30.2646 18.9192Z" fill="#CAC4D0"/>
</svg>
