<svg width="30" height="30" viewBox="0 0 30 30" fill="none" xmlns="http://www.w3.org/2000/svg">
<g clip-path="url(#clip0_353_255)">
<path d="M13.7805 30C13.5973 30 13.4403 29.9869 13.2309 29.9738C12.642 29.9346 12.0663 29.8299 11.5167 29.686C11.0979 29.5682 10.7839 29.4897 10.3782 29.3065C9.9333 29.1102 9.63233 28.9532 9.23976 28.7045L9.1089 28.626C8.87336 28.4821 8.66399 28.3512 8.44153 28.1549C8.24525 27.9848 8.0097 27.7754 7.80033 27.5792C7.14605 26.9641 6.54411 26.1136 6.23005 25.3415C6.05994 24.9359 5.91599 24.4517 5.79822 23.9675C5.57576 23.0123 5.54959 22.1748 5.70662 21.2588C5.86365 20.382 6.12536 19.6623 6.49176 19.1127C6.53102 19.0473 6.58336 18.9557 6.64879 18.8772C6.84508 18.55 7.10679 18.1444 7.35542 17.9743C7.42085 17.9219 7.48628 17.9219 7.53862 17.9481C7.63022 18.0004 7.60405 18.1182 7.59096 18.2098V18.236C7.53862 18.6678 7.47319 19.0865 7.42085 19.466L7.38159 19.7408L8.34993 17.8041L8.67707 17.2284L9.03039 16.4825C9.2005 16.2077 9.39679 16.103 9.94639 15.8282C10.038 15.7759 10.1427 15.7235 10.2604 15.6712L10.3782 15.6188L10.4436 15.9067L10.5614 16.3909L10.6792 16.8096L11.0848 17.9612L11.268 18.3668L11.6737 18.9949L12.0794 19.5184L12.4196 19.9371L12.8122 20.3166L13.2963 20.683L14.1992 21.3504L14.7358 21.7168L15.4424 22.1486L15.377 22.5281L15.3639 23.1955L15.39 23.9544L15.4555 24.6611L15.6125 25.2368L15.7957 25.8126L15.9658 26.2968L16.1621 26.7155L16.3846 27.1473L16.6986 27.5922L16.9211 27.9456L17.3398 28.4952L17.6931 28.8092L17.5884 28.8746C17.4183 28.9924 17.3398 29.0448 17.1566 29.1233C16.8818 29.2541 16.5154 29.3981 16.0705 29.5682C15.4162 29.8168 14.7619 29.9346 13.9375 29.9477C13.859 30 13.8198 30 13.7805 30ZM7.39468 18.3145C7.19839 18.4846 6.98902 18.8248 6.83199 19.0735C6.77965 19.1651 6.72731 19.2436 6.67496 19.309C6.33473 19.8063 6.09919 20.4736 5.95525 21.298C5.79822 22.1617 5.82439 22.9337 6.03376 23.8236C6.13845 24.2816 6.28239 24.7265 6.43942 25.106C6.72731 25.8257 7.28999 26.6239 7.90502 27.1866C8.1013 27.3698 8.32376 27.5661 8.52005 27.7362C8.71633 27.9194 8.91262 28.0372 9.13507 28.1811L9.26593 28.2596C9.63233 28.4952 9.92022 28.6391 10.339 28.8223C10.7184 28.9924 11.0063 29.0709 11.3989 29.1756C11.9223 29.3196 12.4588 29.3981 13.0215 29.4504C13.2571 29.4635 13.4272 29.4766 13.6627 29.4766C14.4348 29.4635 15.0498 29.3457 15.6518 29.1233C16.0705 28.9662 16.4238 28.8223 16.6855 28.7045C16.8164 28.6391 16.8818 28.6129 16.9734 28.5475L16.8033 28.3905L16.3846 27.8409L16.1621 27.5006L15.848 27.0557L15.6256 26.637L15.4293 26.2183L15.2592 25.7341L15.0891 25.1714L14.932 24.5825L14.8666 23.9021L14.8404 23.1562L14.8535 22.4888L14.8928 22.2402L14.317 21.8869L13.7936 21.5205L12.4588 20.5129L12.0663 20.1334L11.726 19.7277L11.3204 19.2174L10.9147 18.5893L10.7315 18.1836L10.3259 17.0583L10.2081 16.6395L10.0772 16.1292C10.0118 16.1684 9.94639 16.1946 9.88096 16.2208C9.3837 16.4694 9.21359 16.561 9.08273 16.7704L8.7425 17.4901L8.42845 18.0528L7.5517 19.8193L6.96285 20.9709L7.19839 19.5184C7.25073 19.152 7.31616 18.7594 7.3685 18.3407L7.39468 18.3145Z" fill="var(--ion-color-light)"/>
<path d="M17.7978 22.8029C17.6931 22.8029 17.6015 22.7898 17.4968 22.7898L17.3922 22.7767C16.7902 22.7375 16.3584 22.672 15.9266 22.5412C15.1807 22.3056 14.5264 21.8346 13.8983 21.3766L13.6104 21.1672C13.0608 20.7746 12.5374 20.3951 12.0663 19.8586C11.9878 19.767 11.9093 19.6885 11.8307 19.5969C11.6737 19.4268 11.5036 19.2436 11.3727 19.0604C10.954 18.4584 10.7185 17.8565 10.496 17.2546C10.3782 16.9143 10.1819 16.2862 10.1427 15.9329C10.1427 15.8936 10.1296 15.8675 10.1296 15.8544C10.1165 15.8151 10.1165 15.7759 10.1427 15.7366C10.1689 15.6974 10.2212 15.6843 10.2605 15.6843C10.2735 15.6843 10.2997 15.6843 10.3259 15.6843C10.5876 15.6581 11.2026 15.5403 11.6999 15.4618C11.8831 15.4356 12.0532 15.3964 12.1841 15.3833C12.1971 15.3179 12.1971 15.2524 12.2102 15.2132C12.2495 14.9515 12.2626 14.8468 12.4196 14.8599C12.8776 14.8337 14.0815 14.7683 15.1283 14.9515C15.9396 15.0954 17.4052 15.7104 18.0988 16.103C18.5044 16.3255 19.9439 17.4247 20.3626 17.8042L20.4019 17.8434C20.6505 18.1706 20.8599 18.6547 20.9646 19.1651C21.0562 19.6754 21.0038 20.4082 20.8991 20.84C20.7421 21.4812 20.2579 22.0308 19.4466 22.5281C19.3419 22.5935 19.2242 22.6197 19.1195 22.659C19.0933 22.672 19.054 22.672 19.0279 22.6851C18.897 22.7244 18.7662 22.7506 18.6484 22.7636L18.5699 22.7767C18.3605 22.816 18.1642 22.8291 17.9548 22.8422H17.8894C17.8763 22.7898 17.8371 22.8029 17.7978 22.8029ZM10.3521 15.9067C10.3521 15.9198 10.3521 15.9329 10.3521 15.946C10.3782 16.2731 10.5745 16.862 10.6792 17.1499C10.8886 17.7126 11.111 18.2622 11.5167 18.8118C11.6345 18.9688 11.7915 19.1389 11.9485 19.309C12.027 19.4006 12.1055 19.4791 12.1841 19.5576C12.629 20.0549 13.1262 20.3951 13.6627 20.7615L13.9506 20.9578C14.5526 21.3766 15.1807 21.8215 15.8873 22.0308C16.293 22.1486 16.7117 22.214 17.2875 22.2533H17.3922C17.523 22.2664 17.6539 22.2664 17.7847 22.2664H17.8371C18.0464 22.2533 18.2166 22.2402 18.4128 22.214L18.4914 22.201C18.6091 22.1879 18.7138 22.1617 18.8316 22.1355C18.8578 22.1224 18.897 22.1224 18.9232 22.1094C19.0279 22.0832 19.1195 22.0439 19.2111 22.0047C19.9831 21.5598 20.4019 21.0887 20.5458 20.526C20.6505 20.1334 20.7028 19.4791 20.6112 19.0211C20.5196 18.5762 20.3234 18.1444 20.1009 17.8565L20.0747 17.8303C19.6822 17.4901 18.282 16.4563 17.8894 16.247C17.222 15.8936 15.8088 15.3048 15.0367 15.187C14.0422 15.03 12.8907 15.0692 12.4196 15.0954C12.4065 15.1347 12.4065 15.2001 12.3934 15.2786C12.3803 15.344 12.3673 15.4226 12.3542 15.5142L12.3411 15.5796L12.2757 15.6058C12.1317 15.6319 11.9485 15.6581 11.7261 15.6974C11.2419 15.7759 10.6269 15.8806 10.3782 15.9067C10.3651 15.9067 10.3651 15.9067 10.3521 15.9067Z" fill="var(--ion-color-light)"/>
<path d="M20.8468 25.3153L20.1794 25.0143L19.7607 24.8835L19.3027 24.7003L18.8708 24.5563L17.9287 24.1638L17.4968 23.9413L17.0781 23.7189L16.3191 23.287L15.848 22.9861L15.3246 22.5281L15.1152 21.9785L15.6125 22.214L15.9266 22.3187C16.3976 22.4495 16.6724 22.5019 17.1566 22.5542C17.7716 22.6066 18.1119 22.5935 18.6615 22.515C19.0933 22.4495 19.4597 22.2794 19.8392 21.9785C20.6767 21.298 20.8206 20.7091 20.8337 19.6492C20.8337 19.0734 20.6374 18.4977 20.2448 17.9088C20.2187 17.8695 20.1925 17.8303 20.1663 17.8041C20.0878 17.6994 20.0486 17.634 20.1271 17.5817C20.2056 17.5162 20.2318 17.5555 20.4019 17.7518C20.4935 17.8695 20.5982 17.9873 20.7028 18.092C20.886 18.3014 21.0692 18.5107 21.2394 18.7201C21.4487 18.9818 21.5665 19.2697 21.6843 19.5576C21.7104 19.623 21.7366 19.6885 21.7628 19.7539C21.946 20.1857 21.9983 20.4082 22.0638 20.84C22.1161 21.2064 22.1423 21.4943 22.1423 21.913C22.1423 22.4495 22.1292 22.8421 22.0768 23.3132C22.0638 23.4048 22.0376 23.5357 22.0114 23.6534C21.9983 23.6927 21.9983 23.7319 21.9852 23.7581L21.8544 24.1376L21.5927 24.6741L21.5142 24.203L20.7159 24.2815L20.7683 24.6479L20.8075 24.9097L20.8468 25.3153ZM17.2351 23.1038L17.5754 23.3917L18.1511 23.8235L18.4652 24.046L18.7792 24.2554L19.4859 24.6479L19.813 24.7788L20.1532 24.962L20.4673 25.1059L20.7552 25.2761V25.1975L20.7159 24.9358L20.6505 24.347L21.5403 24.2161L21.5534 24.2685L21.645 23.9282C21.645 23.9021 21.6581 23.8628 21.6581 23.8235C21.6712 23.7189 21.6974 23.588 21.7104 23.5095C21.7497 23.0384 21.7497 22.6458 21.7497 22.1093C21.7366 21.6906 21.7235 21.4158 21.6843 21.0494C21.6319 20.6175 21.6058 20.4082 21.4618 19.9894C21.4356 19.924 21.4226 19.8586 21.3964 19.7931C21.3048 19.5053 21.2132 19.2305 21.0692 18.9818C20.9907 18.8641 20.9253 18.7332 20.8468 18.6154C20.9776 19.008 21.0431 19.4006 21.0431 19.8062C21.0431 20.9316 20.9253 21.599 20.2579 22.3449C19.957 22.672 19.656 22.8683 19.3027 22.9468C18.8708 23.0384 18.6091 23.0515 18.138 23.0122C17.7586 22.973 17.5492 22.9075 17.1828 22.7767L16.9342 22.6589L16.8818 22.6197L16.8949 22.672L17.2351 23.1038Z" fill="var(--ion-color-light)"/>
<path d="M19.8654 29.8299C19.7345 29.8299 19.6036 29.8168 19.4728 29.8037C18.8839 29.7121 18.0334 29.2803 17.5492 28.9008C17.1435 28.5736 16.8426 28.1418 16.5547 27.7231C16.4892 27.6184 16.4107 27.5268 16.3453 27.4221C15.9789 26.9118 15.6779 26.2182 15.4031 25.3022C15.233 24.7003 15.1938 24.4386 15.1676 23.7974V23.6796C15.1545 23.3524 15.1283 22.9075 15.1545 22.6066C15.1676 22.4495 15.1938 22.2925 15.3115 22.2533C15.4293 22.214 15.534 22.3318 15.6256 22.4495C15.7303 22.5935 15.8742 22.7636 16.0574 22.8814C16.5285 23.1823 17.0519 23.4702 17.4707 23.6927C17.8632 23.9021 18.2166 24.0591 18.6091 24.2292C18.7923 24.3077 18.9624 24.36 19.1326 24.4255C19.2503 24.4647 19.3681 24.504 19.4859 24.5563C19.5775 24.5956 19.6691 24.6218 19.7607 24.661C19.9177 24.7264 20.0878 24.7788 20.2448 24.8442C20.2841 24.8573 20.3103 24.8704 20.3495 24.8835C20.5458 24.9489 20.7814 25.0405 20.8337 25.2891C20.8599 25.3938 20.8468 25.6555 20.8337 25.9565C20.8337 26.0088 20.8337 26.0612 20.8206 26.1004L20.7944 26.7547L20.9646 26.7286L21.6188 26.6893L21.6581 26.0874V25.42C21.6581 25.1844 21.6188 24.962 21.5796 24.7264L21.5534 24.6087C21.5011 24.347 21.5011 24.3208 21.5927 24.1376C21.6188 24.0983 21.645 24.0329 21.6843 23.9544C21.9852 23.2609 21.9852 21.7298 21.8675 20.8923C21.8151 20.5652 21.789 20.3427 21.6712 20.0418C21.5796 19.7931 21.4487 19.5183 21.331 19.2697L21.2655 19.1389C21.1478 18.8771 20.9776 18.707 20.7944 18.5107C20.6767 18.393 20.5589 18.2621 20.4411 18.1051C20.415 18.0789 20.3626 18.0266 20.3364 18.0004C20.2972 17.9611 20.2318 17.8957 20.2841 17.8303C20.3364 17.7518 20.415 17.8041 20.4542 17.8303C20.5196 17.8826 20.6505 17.9481 20.7814 18.0266C20.9646 18.1313 21.1608 18.249 21.2655 18.3275C21.8413 18.7594 22.1946 19.165 22.5872 19.7277C23.0321 20.3558 23.3462 21.2064 23.4639 21.5466C23.5948 21.9261 23.6733 22.2402 23.7649 22.6589C23.8958 23.2608 23.9481 23.889 23.9219 24.5956C23.9088 24.8442 23.8827 25.0536 23.8565 25.2891C23.8434 25.3676 23.8434 25.4462 23.8303 25.5247C23.7911 25.8518 23.7387 26.1266 23.6602 26.4407C23.5294 26.9248 23.2415 27.5791 22.9536 27.9848C22.6003 28.482 21.8936 29.0578 21.3964 29.3457C20.9907 29.6074 20.4935 29.8299 19.8654 29.8299ZM15.4555 22.7243C15.4424 22.7505 15.4424 22.7898 15.4293 22.8683C15.4031 23.13 15.4293 23.5356 15.4424 23.8366V23.9413C15.4686 24.504 15.4947 24.7395 15.6648 25.2891C15.9135 26.1135 16.2144 26.7416 16.5547 27.1996C16.6201 27.2912 16.6986 27.3828 16.764 27.4875C17.0388 27.867 17.3136 28.2465 17.6931 28.5344C18.138 28.8615 18.9494 29.2541 19.4859 29.3326C20.1925 29.4242 20.7159 29.241 21.2786 28.94C21.7497 28.6914 22.4171 28.1811 22.7442 27.7362C23.0059 27.3698 23.2938 26.7809 23.3985 26.3622C23.477 26.0743 23.5294 25.8387 23.5686 25.5378C23.5817 25.4592 23.5817 25.3807 23.5948 25.3153C23.621 25.1059 23.6471 24.9096 23.6471 24.6872C23.6733 24.046 23.621 23.4833 23.5032 22.9468C23.4116 22.5542 23.3462 22.2794 23.2153 21.9392C23.0975 21.6382 22.7966 20.8662 22.3778 20.3035C21.9983 19.7931 21.6712 19.4398 21.1216 19.0603C21.0562 19.0211 20.9515 18.9557 20.8468 18.8902C20.873 18.9164 20.8991 18.9426 20.9253 18.9687C21.1085 19.1519 21.2917 19.3351 21.4226 19.5969L21.4749 19.7146C21.5927 19.9502 21.7104 20.2119 21.8151 20.4474C21.9329 20.7353 21.9722 20.9709 22.0114 21.2718C22.1292 22.0439 22.1423 23.4964 21.8151 24.203C21.7759 24.2815 21.7497 24.3339 21.7235 24.3862C21.6581 24.504 21.6581 24.504 21.6974 24.7134L21.7235 24.818C21.7628 25.0405 21.802 25.2499 21.802 25.4854V26.1135L21.7497 26.8332L20.9515 26.8725L20.5589 26.9248L20.5851 26.1004C20.5851 26.0612 20.5851 26.0219 20.5982 25.9565C20.6112 25.7864 20.6243 25.4723 20.6112 25.3938C20.5851 25.276 20.4542 25.2106 20.2579 25.1452C20.2187 25.1321 20.1794 25.119 20.1402 25.1059C19.9962 25.0536 19.8261 24.9882 19.6691 24.9358C19.5775 24.9096 19.4859 24.8704 19.3943 24.8442C19.2765 24.805 19.1587 24.7657 19.054 24.7264C18.8839 24.6741 18.7138 24.6087 18.5306 24.5432C18.1904 24.4124 17.824 24.2554 17.4052 24.046C16.9996 23.8366 16.4762 23.5749 16.0182 23.287C15.8219 23.1693 15.6649 22.9991 15.5471 22.8552C15.5078 22.7767 15.4686 22.7374 15.4555 22.7243Z" fill="var(--ion-color-light)"/>
<path d="M16.8033 15.6712L16.2537 15.4487L15.3639 15.2001L15.0629 15.1347L14.5918 15.0561L14.1207 14.9907L13.7151 14.9645H13.3094L12.9038 14.9776L12.485 14.9907L12.2102 15.0954L12.5505 12.7923L12.0925 13.1456L12.2364 12.3736L12.3934 11.5623L12.4719 11.0127L12.5635 10.4631L12.6028 10.0836L12.6682 9.6125L12.6813 9.12833L12.6944 8.59181L12.6682 7.49261L12.5897 6.06627L12.5374 5.26804L12.3411 4.22119L16.5154 4.09033L15.0498 5.68679L15.6387 9.73027L14.7881 7.46644L13.4926 7.11313L14.1338 8.7881L15.2199 9.5209L14.5918 10.6724L15.7303 11.6931L15.7695 12.0464L15.8088 12.3082L15.848 12.5699L15.9004 12.8577L15.9527 13.1587L16.2144 14.2056L16.3846 14.7944L16.4892 15.0954L16.8033 15.6712ZM13.3879 14.7552H13.7674L14.1469 14.7813L14.5918 14.8468L15.0367 14.9253L15.3246 15.0038L16.149 15.2655L16.2144 15.2917L16.1621 15.1608L16.0705 14.8599L15.9135 14.2579L15.6779 13.198L15.6387 12.897L15.5863 12.6091L15.5471 12.3474L15.5078 12.0857L15.4816 11.8109L14.3825 10.7379L14.9451 9.6125L14.0422 8.95821L13.3094 6.8645L14.919 7.34867L15.1414 7.98987L14.7881 5.66062L15.9004 4.35205L12.7206 4.45673L12.8645 5.29422L12.9169 6.09244L12.9823 7.51878L12.9954 8.61798L12.9823 9.1545L12.9692 9.63867L12.9169 10.1098L12.8776 10.4892L12.786 11.0388L12.7206 11.5884L12.5243 12.6745L12.9169 12.3343L12.5897 14.7813L12.9954 14.7552H13.3879Z" fill="var(--ion-color-light)"/>
<path d="M20.6112 26.8594L20.6636 25.5247C20.6767 25.2499 20.6243 24.9751 20.572 24.7134C20.5458 24.5694 20.5197 24.4386 20.4935 24.2946L20.4804 24.203L21.6843 24.0983L21.8806 25.4462C21.9198 25.734 21.8936 26.0219 21.8675 26.2967C21.8544 26.4276 21.8413 26.5715 21.8413 26.7155V26.794L20.6112 26.8594ZM20.7814 24.4386C20.7944 24.5432 20.8075 24.6348 20.8337 24.7395C20.873 25.0012 20.9253 25.263 20.9122 25.5378L20.873 26.5977L21.5272 26.5454C21.5272 26.4407 21.5403 26.336 21.5534 26.2313C21.5796 25.9827 21.5927 25.721 21.5665 25.4723L21.4356 24.3731L20.7814 24.4386Z" fill="var(--ion-color-light)"/>
<path d="M20.4673 18.092C20.3888 17.948 20.3103 17.8172 20.2317 17.6863C19.9308 17.1629 19.6429 16.6656 19.2634 16.1684C18.8316 15.6057 18.5306 15.2262 18.0464 14.7682C17.4183 14.1794 16.9734 13.8522 16.2144 13.4073L15.9396 13.2503L16.0312 13.0016L16.306 13.1587C17.065 13.6036 17.5361 13.9569 18.1773 14.5588C18.6745 15.0299 18.9886 15.4225 19.4204 15.9852C19.813 16.4955 20.1009 17.0059 20.4149 17.5424C20.4935 17.6732 20.572 17.8041 20.6505 17.948L20.4673 18.092Z" fill="var(--ion-color-light)" stroke="#CAC4D0" stroke-miterlimit="10"/>
<path d="M10.1558 15.9983L10.3782 14.3102L13.0608 12.2034L12.5504 15.6057L10.1558 15.9983ZM10.8755 14.3626L10.7446 15.2786L12.2626 15.0561L12.5766 13.1849L10.8755 14.3626Z" fill="var(--ion-color-light)"/>
<path d="M10.4175 14.5066L8.82101 11.4707L11.0325 8.40863L12.7075 11.0389L12.3018 13.0017L10.4175 14.5066ZM9.26593 11.6146L10.5614 13.9046L12.0663 12.8054L12.4065 11.2875L11.0587 9.32463L9.26593 11.6146Z" fill="var(--ion-color-light)"/>
<path d="M9.10891 16.4171L7.55171 9.07599L9.01731 11.4183L10.5483 14.3234L10.3259 15.8544L9.10891 16.4171ZM8.4808 11.2875L9.33137 15.6058L9.93331 15.3179L10.0642 14.3364L9.06965 12.2951L8.4808 11.2875Z" fill="var(--ion-color-light)"/>
<path d="M6.98903 20.8139L7.39469 17.9219L8.1144 16.5741L8.23217 11.9418L9.3968 16.1815L6.98903 20.8139ZM7.95737 17.5163L7.80034 18.8772L9.01731 16.0769L8.54623 13.7869L8.45463 16.4433L7.95737 17.5163Z" fill="var(--ion-color-light)"/>
<path d="M8.34994 14.572L6.94977 10.2014L8.31068 11.68L8.42845 12.2035V12.2166L8.34994 14.572ZM7.5648 11.1566L8.19291 13.1195L8.21908 12.1511L8.14057 11.7847L7.5648 11.1566Z" fill="var(--ion-color-light)"/>
<path d="M8.24526 16.7573L6.42635 13.7606L8.3892 13.6167L8.24526 16.7573ZM7.17223 14.114L8.0228 15.7366L8.08823 14.0354L7.17223 14.114Z" fill="var(--ion-color-light)"/>
<path d="M6.79274 18.9164L7.30308 16.0768L8.21908 16.7704L7.748 17.6995L7.49937 18.079L7.26382 18.3145L6.79274 18.9164ZM7.40777 16.6526L7.17223 17.9612L7.18531 17.935L7.35543 17.7518L7.52554 17.5032L7.81342 16.9405L7.40777 16.6526Z" fill="var(--ion-color-light)"/>
<path d="M15.8219 12.0334L14.4086 10.7379L15.6256 8.40863L15.6518 9.36389L15.7041 10.2275L15.7303 10.9211L15.8219 12.0334ZM14.8928 10.6725L15.4162 11.2875L15.39 10.8426L15.377 10.3453L15.3508 9.58634L14.8928 10.6725Z" fill="var(--ion-color-light)"/>
<path d="M15.2068 9.70408L14.0422 8.93203L13.244 6.70746L14.9975 7.2178L15.6648 8.82734L15.2068 9.70408ZM14.2908 8.56563L14.9451 9.02363L15.1545 8.57871L14.7488 7.50569L13.8459 7.2178L14.2908 8.56563Z" fill="var(--ion-color-light)"/>
<path d="M15.4162 9.0629L14.8928 5.63445L17.2875 2.89954L17.5623 5.33348L17.5492 5.35965L15.4162 9.0629ZM15.1545 5.73913L15.5471 8.01604L17.2482 5.41199L17.0519 3.82862L15.1545 5.73913Z" fill="var(--ion-color-light)"/>
<path d="M15.5078 10.4761L15.4555 8.57865L17.0388 5.89608L18.6484 5.68671L17.8109 8.67025L17.7847 8.69642L15.5078 10.4761ZM15.8088 8.5263L15.848 9.7171L17.5361 8.46088L18.1642 6.31482L17.1043 6.44568L15.8088 8.5263Z" fill="var(--ion-color-light)"/>
<path d="M15.8873 13.3812L15.7303 12.3474L15.6387 11.6931L15.5732 10.9342L15.5471 10.1621L16.9603 9.10217L17.0781 11.2351L15.8873 13.3812ZM15.8088 10.3715L15.8219 10.9211L15.8742 11.5361L15.9396 12.0726L16.0051 12.4652L16.7117 11.1435L16.6332 9.7172L15.8088 10.3715Z" fill="var(--ion-color-light)"/>
<path d="M12.6028 4.43056L12.0794 2.07513L16.5808 1.94427L16.2144 4.31279L12.6028 4.43056ZM12.5374 2.36302L12.943 4.09033L15.9396 3.99873L16.2014 2.25833L12.5374 2.36302Z" fill="var(--ion-color-light)"/>
<path d="M12.1579 2.25834L14.2123 -1L16.4892 2.10131L12.1579 2.25834ZM14.2254 -0.0970868L12.7991 1.86577L15.8088 1.77417L14.2254 -0.0970868Z" fill="var(--ion-color-light)"/>
<path d="M14.932 13.6036L13.7412 12.3736L14.3301 11.1042L15.4293 11.8894L14.932 13.6036ZM14.2385 12.3474L14.7881 12.9886L15.0236 12.0857L14.5133 11.68L14.2385 12.3474Z" fill="var(--ion-color-light)"/>
<path d="M7.82652 22.6197L7.38161 20.9316L8.74252 19.309L9.00423 21.3373L7.82652 22.6197ZM7.82652 21.0232L8.03589 21.8869L8.61166 21.2326L8.48081 20.1858L7.82652 21.0232Z" fill="var(--ion-color-light)"/>
<path d="M17.8502 13.9307L17.2875 13.0933L17.9156 11.8109L18.5568 13.1979L17.8502 13.9307ZM17.6408 13.0147L17.8763 13.3811L18.1642 13.0671L17.9025 12.4651L17.6408 13.0147Z" fill="var(--ion-color-light)"/>
<path d="M21.9067 11.4445L21.187 10.1621L22.0638 8.53943L22.8096 10.0574L21.9067 11.4445ZM21.5665 10.1621L21.9067 10.8949L22.3516 10.0705L21.9983 9.19371L21.5665 10.1621Z" fill="var(--ion-color-light)"/>
<path d="M19.1326 5.2811L18.439 4.23424L19.054 2.82098L19.6429 4.14264L19.1326 5.2811ZM18.8185 4.16881L19.1195 4.61372L19.3419 4.12955L19.0933 3.56687L18.8185 4.16881Z" fill="var(--ion-color-light)"/>
<path d="M10.8362 5.94849L10.0511 4.88855L10.5483 3.43604L11.3204 4.75769L10.8362 5.94849ZM10.4436 4.77078L10.7708 5.26803L10.9671 4.71843L10.653 4.09032L10.4436 4.77078Z" fill="var(--ion-color-light)"/>
<path d="M5.83748 16.3254L5 15.1084L5.65428 13.8653L6.34783 15.0168L5.83748 16.3254ZM5.34023 15.0823L5.74588 15.7366L5.99451 15.043L5.65428 14.428L5.34023 15.0823Z" fill="var(--ion-color-light)"/>
</g>
<defs>
<clipPath id="clip0_353_255">
<rect width="30" height="30" fill="white"/>
</clipPath>
</defs>
</svg>
