<svg width="32" height="27" viewBox="0 0 32 27" fill="none" xmlns="http://www.w3.org/2000/svg">
<path d="M30.0497 5.52791C29.5257 4.83365 28.0848 4.89915 25.9889 5.7375C24.8231 6.19597 23.5263 6.86403 22.1901 7.67619L21.8758 7.4535L21.6138 7.30941L21.1815 7.13912L20.9195 7.06052L20.4479 6.95573L20.0419 6.91643H19.6358L19.2035 6.92953L18.876 6.96883L18.5223 7.03432L18.1556 7.13912L17.7495 7.30941L17.3041 7.58449L16.9242 7.88577L16.5968 8.21326L16.4003 8.51454C16.3217 8.38355 16.23 8.23945 16.1383 8.16086C14.9855 6.92953 14.0293 6.09118 12.2478 6.53655C11.2654 6.75924 10.3222 7.4011 9.65416 8.29185C9.54936 8.43594 9.47077 8.56694 9.40527 8.69793C9.35287 8.78962 9.30047 8.88132 9.23498 8.97301C8.98609 9.33979 8.64551 9.41839 8.04295 9.2219C7.1391 8.92062 6.20905 8.04297 5.63269 7.33561C5.52789 7.20461 5.4231 7.07362 5.27901 6.91643V6.87713L5.08252 6.86403L4.30966 22.6879V22.7403L4.62404 23.0285L4.89913 23.1988C4.91223 23.2119 4.92533 23.2119 4.92533 23.225L4.91223 24.8624L5.23971 24.8886C5.64579 24.9279 5.97327 25.0589 6.31385 25.1899C6.32695 25.1899 6.32695 25.203 6.34005 25.203L6.35314 26.133L15.7322 25.5174C15.7584 25.7793 16.0204 25.9889 16.3348 25.9889C16.3348 25.9889 16.3348 25.9889 16.3479 25.9889C16.6885 25.9889 16.9635 25.7531 16.9504 25.4781C16.9504 25.465 16.9504 25.465 16.9504 25.465L26.5784 25.9496L26.5522 24.7183C26.6046 24.7052 26.657 24.7052 26.7094 24.6921L26.9976 24.6528L26.9714 23.4477C27.4167 23.2774 27.7704 23.0809 27.9014 22.8844L27.9145 22.8582L28.0455 10.0864C29.8663 8.06916 30.6653 6.35316 30.0497 5.52791ZM16.7408 8.99921L16.9504 8.68483L17.2124 8.42284L17.5137 8.18706L17.8543 7.97747L18.1818 7.84648L18.4699 7.76788L18.7581 7.71549L19.0201 7.67619L19.3607 7.66309H19.6882L20.0157 7.70239L20.3955 7.78098L20.592 7.84648L20.9326 7.97747L21.1291 8.09536L21.3256 8.22636C20.5265 8.71103 19.7144 9.2612 18.9022 9.86376C18.1425 10.427 17.422 11.0034 16.767 11.5798L16.7408 8.99921C16.7408 9.01231 16.7408 9.01231 16.7408 8.99921ZM15.6798 25.1506C15.6667 25.1506 15.6667 25.1506 15.6798 25.1506L6.79852 25.4912L6.78542 25.1375C6.79852 25.1375 6.81162 25.1506 6.83782 25.1506C7.33559 25.2685 7.82026 25.3078 8.29183 25.3078C8.95989 25.3078 9.60176 25.2292 10.2698 25.1375L10.4925 25.1113C10.7676 25.072 11.0165 25.0327 11.2654 24.9934C11.5535 24.941 11.8417 24.9017 12.143 24.8624L12.3526 24.8362C12.8373 24.7838 13.2171 24.7445 13.7411 24.7183C14.776 24.679 15.0379 24.7707 15.8239 25.0458C15.7584 25.072 15.706 25.1113 15.6798 25.1506ZM15.8501 24.5742L15.8108 24.5611C14.9986 24.1681 14.6974 24.0109 13.5839 24.0633C13.0469 24.0895 12.667 24.1419 12.1823 24.2205L11.9727 24.2467C11.6583 24.2991 11.3571 24.3646 11.082 24.4301C10.8462 24.4825 10.5973 24.548 10.3353 24.5873L10.1126 24.6266C8.9599 24.8231 7.95125 24.9934 6.81162 24.6528C6.71992 24.6266 6.64133 24.6004 6.54963 24.5742C6.20905 24.4694 5.88157 24.3646 5.4755 24.3384L5.3445 24.3253V23.3298C6.32695 23.8145 6.95571 24.0895 8.38353 24.1157C9.05159 24.1288 9.22188 24.0109 9.61486 23.7621C9.66725 23.7359 9.70655 23.6966 9.77205 23.6573C10.0995 23.4477 10.4925 23.3167 11.0689 23.2512C12.3919 23.0809 13.6101 23.4739 14.6319 23.88C14.8284 23.9585 15.444 24.2467 15.575 24.3384L15.9418 24.5742C15.9156 24.5611 15.8894 24.5611 15.8501 24.5742ZM16.0466 20.2253C16.0466 20.9719 16.0335 21.6793 16.0335 22.3735C16.0204 23.0023 16.0204 23.6442 16.0204 24.3253L15.7977 24.1419C15.6405 24.0109 15.0117 23.6442 14.8153 23.5525C13.7673 23.0285 12.4967 22.5176 11.1213 22.7403C10.7152 22.8058 10.1912 22.9368 9.73275 23.3036C9.68035 23.3429 9.62796 23.3953 9.57556 23.4346C9.19568 23.749 9.06469 23.8538 8.46212 23.8407C6.98191 23.8014 6.41864 23.4477 5.27901 22.7403L5.04322 22.5831L4.82053 22.3473L5.54099 7.71549C5.61959 7.80718 5.68508 7.88577 5.75058 7.96437C6.31385 8.65863 7.23079 9.52318 8.13464 9.81136C8.33113 9.87686 8.52762 9.92926 8.72411 9.92926C8.99919 9.92926 9.27428 9.82446 9.48386 9.51008C9.54936 9.41839 9.60176 9.32669 9.65416 9.235C9.71965 9.1171 9.78515 8.99921 9.87684 8.88132C10.4925 8.06916 11.3571 7.4928 12.2347 7.27011C13.8459 6.87713 14.6843 7.59759 15.7715 8.75032C15.8501 8.82892 15.9418 8.97301 16.0204 9.09091C16.0335 9.1171 16.0597 9.1433 16.0728 9.1695L16.0859 12.3264C14.9201 13.3613 13.9245 14.3961 13.1517 15.3654C11.9989 16.8195 11.5011 17.9853 11.7107 18.6927L8.9075 19.6489L8.8813 19.662L7.23079 22.1116L10.3484 21.509L10.3877 21.4959L12.1037 19.2035C12.3395 19.3607 12.6539 19.4393 13.06 19.4393C13.7411 19.4393 14.645 19.2297 15.7322 18.7974C15.837 18.7582 15.9287 18.7189 16.0335 18.6796L16.0466 20.2253ZM9.40527 20.5789C9.48386 20.6837 9.62796 20.7099 9.73275 20.6313L11.4619 19.3476C11.4749 19.3607 11.475 19.3607 11.488 19.3738L10.2829 20.9326L8.37043 21.2994L9.36597 19.8716L11.3702 19.2166C11.3833 19.2428 11.3702 19.2297 11.3833 19.2559L9.48386 20.2777C9.36597 20.3301 9.33977 20.4742 9.40527 20.5789ZM16.3479 25.7531C16.2562 25.7531 16.1514 25.7008 16.1121 25.6222C16.0204 25.4257 16.1514 25.2292 16.3348 25.2292C16.4265 25.2292 16.5182 25.2816 16.5706 25.3602C16.6754 25.5567 16.5313 25.7531 16.3479 25.7531ZM26.3033 25.4912L17.0945 25.203C17.0683 25.1768 17.0421 25.1506 17.0028 25.1375C17.7233 24.81 17.9853 24.6921 18.9284 24.7183C19.5834 24.7445 20.3693 24.8231 20.6837 24.8624C20.9588 24.9017 21.2208 24.941 21.4828 24.9934C21.7055 25.0327 21.9281 25.0851 22.177 25.1113L22.3735 25.1375C22.9499 25.2161 23.5132 25.2947 24.0895 25.2947C24.5349 25.2947 24.9934 25.2423 25.4649 25.1113C25.5435 25.0851 25.6221 25.0589 25.7007 25.0458C25.8972 24.9934 26.0806 24.9279 26.2771 24.8886L26.3033 25.4912ZM26.4474 24.4301C26.0806 24.4694 25.7924 24.5742 25.478 24.679C25.3995 24.7052 25.334 24.7314 25.2554 24.7576C24.2467 25.1113 23.356 24.9541 22.3211 24.7838L22.1246 24.7445C21.8889 24.7052 21.6662 24.6528 21.4566 24.6004C21.2077 24.5349 20.9326 24.4825 20.6575 24.4432C20.3431 24.4039 19.5572 24.286 18.9022 24.2729C17.9067 24.2336 17.5923 24.417 16.8849 24.81L16.8325 24.8362C16.8063 24.8231 16.7801 24.8231 16.7408 24.81C16.7539 24.7969 16.7801 24.7838 16.7932 24.7576C16.8456 24.7183 16.898 24.6659 16.9504 24.6135C17.1338 24.4301 17.3696 24.2729 17.6447 24.1288C18.2211 23.8276 19.0987 23.5918 19.8061 23.5394C20.1205 23.5263 20.5134 23.5132 20.8802 23.5132C21.3256 23.5132 21.9936 23.5656 22.4783 23.6835C22.7927 23.7621 23.8406 23.9978 24.4694 24.0371C24.8886 24.0633 25.7924 23.9062 26.526 23.6966L26.5391 24.4039L26.4474 24.4301ZM27.4822 22.5307C27.3643 22.6748 27.05 22.832 26.6701 22.9761L26.5653 23.0023C25.8448 23.2643 24.9148 23.4739 24.5218 23.4477C23.9061 23.4084 22.8713 23.1071 22.5569 23.0154C22.0591 22.8582 21.3649 22.7927 20.8933 22.7927C20.8278 22.7927 20.7492 22.7927 20.6837 22.7927C20.7099 22.7796 20.7361 22.7796 20.7623 22.7665L20.6837 22.5831C20.5658 22.6355 20.4479 22.6748 20.33 22.701L20.3562 22.8058C20.2907 22.8058 20.2252 22.8058 20.1598 22.8058L20.1467 22.7403C20.0288 22.7534 19.9109 22.7665 19.793 22.7665H19.7668V22.832C19.7013 22.832 19.6358 22.8451 19.5703 22.8582L19.5834 22.7665C19.4524 22.7534 19.3345 22.7403 19.2166 22.7141L19.1773 22.9106C19.2035 22.9106 19.2297 22.9237 19.2559 22.9237C18.6533 23.0547 18.0115 23.3036 17.553 23.618C17.2517 23.8145 17.0159 24.024 16.8194 24.2729C16.767 24.3384 16.7146 24.3908 16.6754 24.4432C16.6623 24.4563 16.6492 24.4694 16.6361 24.4825C16.6361 23.7752 16.6492 23.094 16.6492 22.4521C16.6623 21.771 16.6623 21.0767 16.6623 20.3432V18.7451C18.5223 17.9722 20.6837 16.7147 22.7927 15.1821C24.7445 13.7673 26.395 12.3133 27.6132 11.0034L27.4822 22.5307ZM22.4652 14.4878C20.2645 16.0859 18.0246 17.3696 16.1645 18.0901C14.7629 18.6272 13.7018 18.8105 13.0993 18.6141C12.929 18.5617 12.8897 18.3259 13.0469 18.2211L21.9805 12.012C22.701 11.5143 22.7534 11.1606 22.5569 10.9379L22.5045 10.8855C22.3604 10.7152 22.1246 10.689 21.9543 10.8331L12.9945 18.0246C12.8242 18.1687 12.5622 18.0377 12.5753 17.815C12.6146 17.1993 13.0862 16.2955 13.9507 15.2083C15.1951 13.6625 17.0814 11.9334 19.2821 10.3353C21.4828 8.73723 23.7227 7.4535 25.5828 6.73304C26.6046 6.34006 27.4691 6.13048 28.0848 6.13048C28.5433 6.13048 28.8838 6.24837 29.0541 6.47106C29.9056 7.57139 26.8928 11.2654 22.4652 14.4878Z" fill="var(--ion-color-light)"/>
<path d="M20.854 22.5045L20.9457 22.6748C21.0636 22.6093 21.1815 22.5438 21.2994 22.4652L21.1815 22.308C21.0767 22.3866 20.9719 22.439 20.854 22.5045Z" fill="var(--ion-color-light)"/>
<path d="M22.2163 20.199L22.4128 20.1859C22.4128 20.0549 22.3866 19.9108 22.3604 19.7798L22.1639 19.8191C22.2032 19.937 22.2163 20.068 22.2163 20.199Z" fill="var(--ion-color-light)"/>
<path d="M21.3387 22.1901L21.4697 22.3473C21.5745 22.2556 21.6662 22.1639 21.7579 22.0592L21.6138 21.9282C21.5221 22.0199 21.4304 22.1116 21.3387 22.1901Z" fill="var(--ion-color-light)"/>
<path d="M21.7186 21.784L21.8758 21.9019C21.9544 21.7971 22.0329 21.6793 22.0984 21.5614L21.9282 21.4697C21.8627 21.5745 21.7972 21.6793 21.7186 21.784Z" fill="var(--ion-color-light)"/>
<path d="M22.177 20.7623L22.3735 20.8016C22.3997 20.6707 22.4128 20.5266 22.4128 20.3956H22.2163C22.2163 20.5135 22.2032 20.6314 22.177 20.7623Z" fill="var(--ion-color-light)"/>
<path d="M22.0067 21.2994L22.1901 21.378C22.2425 21.2601 22.2949 21.1291 22.3211 20.9981L22.1377 20.9457C22.1115 21.0636 22.0591 21.1815 22.0067 21.2994Z" fill="var(--ion-color-light)"/>
<path d="M17.6447 21.9019C17.7233 22.0067 17.815 22.1115 17.9198 22.2032L18.0508 22.0591C17.9591 21.9674 17.8805 21.8757 17.8019 21.7709L17.6447 21.9019Z" fill="var(--ion-color-light)"/>
<path d="M17.3958 19.6358L17.2124 19.5834C17.1731 19.7144 17.1469 19.8454 17.1338 19.9895L17.3303 20.0156C17.3434 19.8847 17.3565 19.7537 17.3958 19.6358Z" fill="var(--ion-color-light)"/>
<path d="M17.3041 20.3169V20.2907C17.3041 20.2514 17.3041 20.2252 17.3041 20.186L17.1076 20.1729C17.1076 20.2121 17.1076 20.2514 17.1076 20.2776V20.3038C17.1076 20.3955 17.1076 20.4872 17.1207 20.5789L17.3172 20.5527C17.3172 20.4872 17.3041 20.4086 17.3041 20.3169Z" fill="var(--ion-color-light)"/>
<path d="M17.6054 19.1118L17.4351 19.0201C17.3696 19.138 17.3172 19.269 17.2648 19.3869L17.4482 19.4524C17.5006 19.3345 17.553 19.2297 17.6054 19.1118Z" fill="var(--ion-color-light)"/>
<path d="M22.1377 19.6358L22.3211 19.5834C22.2818 19.4524 22.2425 19.3214 22.177 19.2035L21.9936 19.2821C22.0591 19.4 22.0984 19.5179 22.1377 19.6358Z" fill="var(--ion-color-light)"/>
<path d="M17.3434 20.7623L17.1469 20.8016C17.1731 20.9326 17.2124 21.0636 17.2517 21.1946L17.4351 21.1291C17.4089 21.0112 17.3696 20.8802 17.3434 20.7623Z" fill="var(--ion-color-light)"/>
<path d="M18.5878 22.6748C18.7057 22.7403 18.8367 22.7927 18.9677 22.832L19.0332 22.6486C18.9153 22.6093 18.7974 22.5569 18.6795 22.5045L18.5878 22.6748Z" fill="var(--ion-color-light)"/>
<path d="M17.5137 21.2994L17.3303 21.378C17.3827 21.4959 17.4482 21.6269 17.5268 21.7317L17.6971 21.6269C17.6316 21.5221 17.5661 21.4173 17.5137 21.2994Z" fill="var(--ion-color-light)"/>
<path d="M18.077 22.3473C18.1818 22.439 18.2997 22.5176 18.4044 22.5831L18.5092 22.4128C18.4044 22.3473 18.2997 22.2687 18.1949 22.1901L18.077 22.3473Z" fill="var(--ion-color-light)"/>
<path d="M17.9329 18.6533L17.7888 18.5223C17.6971 18.6271 17.6185 18.7319 17.5399 18.8498L17.7102 18.9546C17.7757 18.8498 17.8543 18.745 17.9329 18.6533Z" fill="var(--ion-color-light)"/>
<path d="M21.2732 18.1163C21.1684 18.0377 21.0374 17.9722 20.9195 17.9067L20.8278 18.077C20.9457 18.1294 21.0505 18.1949 21.1553 18.2735L21.2732 18.1163Z" fill="var(--ion-color-light)"/>
<path d="M18.3651 18.2735L18.2472 18.1163C18.1424 18.1949 18.0246 18.2866 17.9329 18.3783L18.0639 18.5223C18.1555 18.4307 18.2603 18.3521 18.3651 18.2735Z" fill="var(--ion-color-light)"/>
<path d="M19.4131 17.8674L19.3869 17.6709C19.2559 17.684 19.1249 17.7233 18.9939 17.7626L19.0463 17.946C19.1642 17.9067 19.2821 17.8805 19.4131 17.8674Z" fill="var(--ion-color-light)"/>
<path d="M19.7406 17.8411H19.7668C19.8847 17.8411 20.0026 17.8542 20.1204 17.8673L20.1466 17.6709C20.0156 17.6578 19.8978 17.6447 19.7668 17.6447H19.7406C19.6882 17.6447 19.6358 17.6447 19.5834 17.6447L19.5965 17.8411C19.6489 17.8411 19.6882 17.8411 19.7406 17.8411Z" fill="var(--ion-color-light)"/>
<path d="M20.7361 17.8281C20.6051 17.7757 20.4741 17.7364 20.3431 17.7102L20.3038 17.9067C20.4217 17.9329 20.5527 17.9722 20.6706 18.0115L20.7361 17.8281Z" fill="var(--ion-color-light)"/>
<path d="M21.915 19.1118L22.0853 19.0201C22.0198 18.9022 21.9412 18.7843 21.8626 18.6795L21.7054 18.7974C21.784 18.9022 21.8626 19.007 21.915 19.1118Z" fill="var(--ion-color-light)"/>
<path d="M18.8629 18.0115L18.7843 17.8281C18.6533 17.8805 18.5354 17.9329 18.4175 18.0115L18.5223 18.1817C18.6271 18.1162 18.745 18.0638 18.8629 18.0115Z" fill="var(--ion-color-light)"/>
<path d="M21.5876 18.6533L21.7316 18.5223C21.64 18.4175 21.5352 18.3258 21.4304 18.2473L21.3125 18.4044C21.4173 18.4699 21.509 18.5616 21.5876 18.6533Z" fill="var(--ion-color-light)"/>
<path d="M13.0338 13.1385H13.0076C12.9421 13.1385 12.8897 13.1385 12.8242 13.1385L12.8111 13.335C12.8766 13.335 12.9421 13.335 13.0076 13.335H13.0338C13.0992 13.335 13.1647 13.335 13.2171 13.3219L13.204 13.1254C13.1516 13.1385 13.0992 13.1385 13.0338 13.1385Z" fill="var(--ion-color-light)"/>
<path d="M14.4616 12.7325L14.5664 12.9027C14.6843 12.8372 14.7891 12.7587 14.8939 12.667L14.7629 12.5098C14.6712 12.6015 14.5664 12.667 14.4616 12.7325Z" fill="var(--ion-color-light)"/>
<path d="M13.4005 13.1124L13.4267 13.3089C13.5577 13.2958 13.6887 13.2565 13.8197 13.2303L13.7673 13.0469C13.6494 13.0731 13.5184 13.0993 13.4005 13.1124Z" fill="var(--ion-color-light)"/>
<path d="M15.2868 11.9596L15.444 12.0775C15.5226 11.9727 15.5881 11.8548 15.6536 11.7238L15.4833 11.6321C15.4178 11.75 15.3523 11.8548 15.2868 11.9596Z" fill="var(--ion-color-light)"/>
<path d="M14.907 12.3919L15.0379 12.536C15.1427 12.4443 15.2344 12.3395 15.313 12.2347L15.1558 12.1168C15.0903 12.2085 14.9986 12.3002 14.907 12.3919Z" fill="var(--ion-color-light)"/>
<path d="M13.9507 12.9814L14.0162 13.1648C14.1472 13.1255 14.2651 13.06 14.383 13.0076L14.2913 12.8373C14.1865 12.8897 14.0686 12.9421 13.9507 12.9814Z" fill="var(--ion-color-light)"/>
<path d="M10.7545 11.9727C10.6759 11.868 10.6104 11.7632 10.558 11.6453L10.3877 11.737C10.4532 11.8549 10.5187 11.9727 10.5973 12.0775L10.7545 11.9727Z" fill="var(--ion-color-light)"/>
<path d="M10.8593 12.1299L10.7021 12.2478C10.7938 12.3526 10.8855 12.4574 10.9772 12.5491L11.1082 12.405C11.0296 12.3133 10.9379 12.2216 10.8593 12.1299Z" fill="var(--ion-color-light)"/>
<path d="M10.4663 11.475C10.4139 11.3571 10.3746 11.2392 10.3353 11.1213L10.1519 11.1737C10.1912 11.3047 10.2305 11.4357 10.2829 11.5536L10.4663 11.475Z" fill="var(--ion-color-light)"/>
<path d="M15.5619 11.4618L15.7453 11.5404C15.7977 11.4225 15.8501 11.2915 15.8763 11.1606L15.6929 11.1082C15.6536 11.226 15.6143 11.3439 15.5619 11.4618Z" fill="var(--ion-color-light)"/>
<path d="M11.1475 12.6801C11.2523 12.7718 11.3701 12.8504 11.4749 12.9159L11.5797 12.7456C11.4749 12.6801 11.3701 12.6015 11.2654 12.5229L11.1475 12.6801Z" fill="var(--ion-color-light)"/>
<path d="M11.6452 13.0076C11.7631 13.0731 11.8941 13.1255 12.012 13.1648L12.0775 12.9814C11.9596 12.9421 11.8417 12.8897 11.7238 12.8373L11.6452 13.0076Z" fill="var(--ion-color-light)"/>
<path d="M10.0471 10.5711C10.0602 10.7021 10.0733 10.8462 10.0995 10.9772L10.296 10.9379C10.2698 10.82 10.2567 10.689 10.2436 10.558L10.0471 10.5711Z" fill="var(--ion-color-light)"/>
<path d="M12.2216 13.2302C12.3526 13.2695 12.4836 13.2957 12.6146 13.3088L12.6408 13.1123C12.5098 13.0992 12.3919 13.0731 12.274 13.0338L12.2216 13.2302Z" fill="var(--ion-color-light)"/>
<path d="M15.7846 10.3615L15.9811 10.3484C15.9811 10.2174 15.968 10.0864 15.9549 9.95544L15.7584 9.98164C15.7715 10.0995 15.7846 10.2174 15.7846 10.3615Z" fill="var(--ion-color-light)"/>
<path d="M12.4443 7.64998L12.405 7.45349C12.274 7.47969 12.143 7.51899 12.012 7.55828L12.0775 7.74167C12.2085 7.71548 12.3264 7.67618 12.4443 7.64998Z" fill="var(--ion-color-light)"/>
<path d="M11.4094 8.10842L11.2916 7.95123C11.1868 8.02983 11.0689 8.12152 10.9772 8.21322L11.1082 8.35731C11.213 8.25252 11.3047 8.17392 11.4094 8.10842Z" fill="var(--ion-color-light)"/>
<path d="M11.9072 7.82023L11.8286 7.63684C11.7107 7.68924 11.5797 7.75473 11.4619 7.82023L11.5666 7.99052C11.6845 7.93812 11.7893 7.87263 11.9072 7.82023Z" fill="var(--ion-color-light)"/>
<path d="M10.9903 8.47523L10.8462 8.34424C10.7545 8.44903 10.6628 8.55383 10.5842 8.65862L10.7414 8.77651C10.82 8.67172 10.8986 8.56693 10.9903 8.47523Z" fill="var(--ion-color-light)"/>
<path d="M15.7322 10.9248L15.9287 10.9641C15.9549 10.8331 15.968 10.7021 15.9811 10.558L15.7846 10.5449C15.7715 10.6759 15.7584 10.7938 15.7322 10.9248Z" fill="var(--ion-color-light)"/>
<path d="M10.2567 9.99476L10.0602 9.96857C10.0471 10.0996 10.034 10.2306 10.034 10.3746H10.2305C10.2436 10.2437 10.2436 10.1258 10.2567 9.99476Z" fill="var(--ion-color-light)"/>
<path d="M10.4008 9.44459L10.2174 9.37909C10.1781 9.51008 10.1388 9.64107 10.1126 9.77207L10.3091 9.81136C10.3222 9.68037 10.3615 9.56248 10.4008 9.44459Z" fill="var(--ion-color-light)"/>
<path d="M10.6366 8.93371L10.4663 8.82892C10.4008 8.94681 10.3353 9.0647 10.2829 9.1957L10.4663 9.27429C10.5187 9.1564 10.5711 9.03851 10.6366 8.93371Z" fill="var(--ion-color-light)"/>
<path d="M15.4309 8.6455C15.3523 8.5407 15.2606 8.43591 15.1689 8.33112L15.0248 8.46211C15.1165 8.5538 15.1951 8.6586 15.2606 8.75029L15.4309 8.6455Z" fill="var(--ion-color-light)"/>
<path d="M15.7191 9.78512L15.9156 9.74582C15.8894 9.61483 15.8501 9.48384 15.7977 9.35284L15.6143 9.41834C15.6667 9.54933 15.6929 9.66723 15.7191 9.78512Z" fill="var(--ion-color-light)"/>
<path d="M15.0248 8.18706C14.92 8.09536 14.8152 8.00367 14.7105 7.93817L14.5926 8.09536C14.6974 8.16086 14.789 8.25255 14.8938 8.33115L15.0248 8.18706Z" fill="var(--ion-color-light)"/>
<path d="M15.5488 9.24807L15.7322 9.16948C15.6798 9.05158 15.6143 8.92059 15.5488 8.8158L15.3785 8.92059C15.4309 9.02538 15.4964 9.13018 15.5488 9.24807Z" fill="var(--ion-color-light)"/>
<path d="M12.9813 7.59755H13.0075C13.1254 7.59755 13.2433 7.61065 13.3612 7.62375L13.3874 7.42726C13.2564 7.41416 13.1385 7.40106 13.0075 7.40106H12.9813C12.8503 7.40106 12.7325 7.41416 12.6146 7.42726L12.6408 7.62375C12.7456 7.61065 12.8634 7.59755 12.9813 7.59755Z" fill="var(--ion-color-light)"/>
<path d="M14.5402 7.82023C14.4223 7.75473 14.3044 7.68924 14.1734 7.63684L14.0948 7.82023C14.2127 7.87263 14.3306 7.92502 14.4354 7.99052L14.5402 7.82023Z" fill="var(--ion-color-light)"/>
<path d="M13.9769 7.57135C13.8459 7.53205 13.7149 7.49275 13.5839 7.46655L13.5446 7.66304C13.6625 7.68924 13.7935 7.71544 13.9114 7.76783L13.9769 7.57135Z" fill="var(--ion-color-light)"/>
<path d="M23.2905 22.0854L23.094 22.3605C23.4083 22.5962 23.8013 22.6879 24.2205 22.6879C25.1505 22.6879 26.1985 22.2033 26.8534 21.7448L26.6963 20.9064C25.8317 21.509 24.2336 22.7796 23.2905 22.0854Z" fill="var(--ion-color-light)"/>
<path d="M9.27426 11.082V10.689L9.14327 10.7545C9.11707 10.7545 9.10397 10.7676 9.07777 10.7676H9.06467C7.79405 11.3702 7.55826 10.689 7.04739 10.2829C6.8247 10.0996 6.57582 9.87687 6.26144 9.75897L5.99945 10.4139C6.27453 10.5187 6.51032 10.5842 6.71991 10.7545C7.04739 11.0165 7.37487 11.2916 7.92504 11.2916C8.23942 11.2916 8.76339 11.3178 9.27426 11.082Z" fill="var(--ion-color-light)"/>
<path d="M21.0636 21.5614C21.1291 21.3125 20.854 21.0374 20.3693 20.4217C22.6748 19.5834 20.2646 17.4744 19.5703 19.0594C18.2211 17.6709 17.3565 20.461 18.8367 20.6182C18.1687 21.9281 19.9109 22.0591 20.3431 21.5352C20.5134 21.2863 20.3169 20.9064 20.1205 20.4741L19.9371 20.5658C20.1205 20.9064 20.0288 21.0636 20.0157 21.1815C20.0157 21.3387 20.0026 21.4566 19.4917 21.4435C18.8105 21.4828 18.9153 20.7492 19.2297 20.2645C18.745 20.2907 18.4438 20.2514 18.4438 19.8716C18.4438 19.8716 18.2866 19.3607 18.5747 19.2166C18.9808 18.9153 19.3345 19.5179 19.7537 19.7406C19.6358 17.6578 22.2556 19.5965 20.1205 20.3169C20.0943 20.3955 20.0943 20.4217 20.1598 20.5003C20.8147 21.378 20.4348 21.6662 20.2776 21.8365L20.8147 21.915C20.9064 21.8626 21.0374 21.6531 21.0636 21.5614Z" fill="var(--ion-color-light)"/>
<path d="M12.2347 9.58867C11.6059 9.86376 11.0296 10.1126 10.7938 10.1781L10.7152 10.2043V10.2829C10.7152 10.3877 10.7152 10.4008 12.143 10.7283C12.1561 10.7283 12.1823 10.7414 12.1954 10.7414C12.1954 11.213 12.1954 11.7762 12.2216 12.4574V12.536L12.3002 12.5491C12.3133 12.5491 12.3133 12.5491 12.3264 12.5491C12.3788 12.5491 12.4181 12.4836 12.7325 11.9465C12.8897 11.6846 13.073 11.344 13.2826 10.9903C13.8852 11.1344 14.3961 11.2785 14.514 11.3571C14.5795 11.3964 14.6843 11.475 14.7497 11.3964C14.8414 11.3047 14.8283 11.2523 13.8197 10.0602C14.121 9.52318 14.4747 8.90751 14.4878 8.86821L14.514 8.80272L14.4616 8.75032C14.3961 8.68482 14.383 8.65862 13.1123 9.20879C12.9159 8.95991 12.7587 8.76342 12.7194 8.67172C12.6932 8.61933 12.6277 8.46214 12.4967 8.48833C12.4312 8.50143 12.2871 8.54073 12.2347 9.58867ZM12.143 10.427C11.9072 10.3615 11.6452 10.2829 11.5011 10.2436C11.6583 10.165 11.9072 10.0471 12.1561 9.90305C12.1561 10.0471 12.143 10.2305 12.143 10.427ZM12.5622 11.7369C12.5622 11.4226 12.5491 11.1082 12.5491 10.82C12.6801 10.8593 12.8111 10.8986 12.9421 10.9248C12.7849 11.2523 12.6408 11.5536 12.5622 11.7369ZM14.121 10.951C13.99 10.8855 13.7542 10.82 13.466 10.7283C13.4791 10.7021 13.4922 10.6759 13.5053 10.6497C13.5446 10.5711 13.6101 10.4401 13.6756 10.296C13.8328 10.5318 14.0162 10.7807 14.121 10.951ZM13.859 9.24809C13.7935 9.36598 13.6887 9.54937 13.5708 9.77206C13.4922 9.66727 13.4005 9.56247 13.335 9.47078C13.5446 9.37908 13.7411 9.28739 13.859 9.24809ZM12.5753 8.98611C12.5884 9.0385 12.6277 9.1433 12.6801 9.27429C12.6539 9.30049 12.6146 9.32669 12.5884 9.35289C12.5753 9.36598 12.5622 9.37908 12.5491 9.37908C12.5491 9.19569 12.5622 9.0516 12.5753 8.98611ZM12.5622 9.82446C12.6146 9.79826 12.6801 9.78516 12.7325 9.75896C12.8373 9.71966 12.9421 9.68037 13.0468 9.64107C13.1647 9.77206 13.3088 9.91615 13.466 10.0733C13.3612 10.2305 13.2564 10.3877 13.1516 10.558C12.9682 10.5187 12.7587 10.4794 12.5491 10.427C12.5491 10.2174 12.5622 10.0078 12.5622 9.82446Z" fill="var(--ion-color-light)"/>
<path d="M0 15.1296L0.969344 17.0028L1.93869 15.1296L0.969344 13.2564L0 15.1296ZM0.956245 16.1906L0.366779 15.2082L0.956245 14.2258L1.54571 15.2082L0.956245 16.1906Z" fill="var(--ion-color-light)"/>
<path d="M10.9117 16.0073L10.1912 14.645L9.49695 16.0204L10.2174 17.3827L10.9117 16.0073ZM10.2174 15.4047L10.5842 16.0073L10.2305 16.6229L9.86373 16.0204L10.2174 15.4047Z" fill="var(--ion-color-light)"/>
<path d="M4.19177 3.86426L3.48441 5.22658L4.19177 6.5889L4.89912 5.22658L4.19177 3.86426ZM3.81189 5.25278L4.17867 4.53232L4.54544 5.25278L4.19177 5.97324L3.81189 5.25278Z" fill="var(--ion-color-light)"/>
<path d="M9.87683 5.44931L8.86819 3.51062L7.87265 5.44931L8.88129 7.388L9.87683 5.44931ZM8.86819 4.27038L9.40526 5.44931L8.86819 6.62824L8.33112 5.44931L8.86819 4.27038Z" fill="var(--ion-color-light)"/>
<path d="M17.4351 1.93869L16.4265 0L15.4309 1.93869L16.4395 3.87738L17.4351 1.93869ZM15.8632 1.93869L16.4395 0.733558L17.0159 1.93869L16.4395 3.14382L15.8632 1.93869Z" fill="var(--ion-color-light)"/>
<path d="M23.9454 4.12629L23.225 2.72467L22.5045 4.12629L23.225 5.52791L23.9454 4.12629ZM23.225 3.48443L23.5525 4.12629L23.225 4.76815L22.8975 4.12629L23.225 3.48443Z" fill="var(--ion-color-light)"/>
<path d="M15.8763 6.09113L16.4265 7.15217L16.9766 6.09113L16.4265 5.03009L15.8763 6.09113ZM16.4265 6.47101L16.2431 6.09113L16.4265 5.71125L16.6098 6.09113L16.4265 6.47101Z" fill="var(--ion-color-light)"/>
<path d="M25.609 16.8718L25.0589 15.8108L24.5087 16.8718L25.0589 17.9329L25.609 16.8718ZM25.0589 16.4527L25.2554 16.8718L25.0589 17.291L24.8624 16.8718L25.0589 16.4527Z" fill="var(--ion-color-light)"/>
<path d="M32.2504 11.0558L31.1762 8.9599L30.1021 11.0558L31.1762 13.1517L32.2504 11.0558ZM31.1631 9.90305L31.805 11.0558L31.1631 12.2085L30.5213 11.0558L31.1631 9.90305Z" fill="var(--ion-color-light)"/>
<path d="M30.4557 18.4961L31.0452 19.6488L31.6347 18.4961L31.0452 17.3434L30.4557 18.4961ZM31.0452 18.9808L30.8094 18.5092L31.0452 18.0376L31.281 18.5092L31.0452 18.9808Z" fill="var(--ion-color-light)"/>
</svg>
