<svg width="30" height="30" viewBox="0 0 30 30" fill="none" xmlns="http://www.w3.org/2000/svg">
<path d="M27.1379 7.41025C27.0685 7.0496 26.8604 6.78605 26.583 6.66121C26.5275 6.63346 26.4859 6.61959 26.4304 6.60572L13.8492 1.44563V1.43176C13.0586 1.47337 12.5315 1.69531 12.3095 2.09757C12.0737 2.51371 12.1708 3.12404 12.587 3.90083L12.5176 3.9147C11.4495 4.19213 9.88207 4.60826 9.21625 5.63474C7.21879 2.51371 5.06875 0.599481 3.90357 1.0711C3.62614 1.18207 3.43195 1.41788 3.29324 1.76466C2.73839 3.24889 3.61227 6.66121 5.45715 10.2539C6.19232 11.6826 6.99685 12.9726 7.78751 14.0546C7.7459 17.3698 7.08008 19.6031 3.94518 20.5186C3.8897 20.5324 3.7926 20.5186 3.70937 20.5047C3.62614 20.4908 3.54292 20.4631 3.54292 20.4631C3.18227 20.2966 2.71064 20.3244 2.19741 20.9763C1.90611 21.3508 1.94773 21.9334 2.25289 22.6825L15.7357 29.4655C15.8328 29.6181 15.9577 29.7429 16.1102 29.8123C16.2212 29.8678 16.3599 29.8955 16.4848 29.8955C16.6651 29.8955 16.8593 29.84 17.0396 29.7429C17.3448 29.5765 17.6083 29.2713 17.7887 28.9107C18.0245 28.4113 18.0383 27.8842 17.8441 27.4958C17.9967 27.3571 18.4129 26.9132 19.7861 25.429C19.9942 25.1932 20.1606 25.0267 20.2161 24.9712C22.4771 22.5576 22.3384 19.9776 19.8 17.0646C18.7874 15.8994 18.4267 14.7897 18.7319 13.7771C19.3977 11.5161 23.1291 10.1151 25.3624 9.47707C25.4733 9.53255 25.5982 9.54642 25.7091 9.54642C25.8895 9.54642 26.0975 9.49094 26.2779 9.37997C26.583 9.19964 26.8327 8.89447 26.9992 8.53382C27.1656 8.17317 27.2072 7.74316 27.1379 7.41025ZM6.06748 9.94869C4.4168 6.74443 3.51517 3.56792 3.8897 2.23629C3.97293 1.95886 4.09777 1.77854 4.27809 1.68144C5.13811 1.23756 6.99685 2.98533 8.74463 5.73183C8.7585 5.77345 8.78624 5.82893 8.82785 5.85668C9.24399 6.50862 9.64626 7.20218 10.0208 7.93736C11.6715 11.1416 12.5731 14.3181 12.1986 15.6498L12.1569 15.7746C12.1015 15.9549 11.8657 15.9827 11.7686 15.8162L6.76104 5.80119C6.66394 5.60699 6.442 5.52377 6.24781 5.60699C6.06748 5.67635 5.98425 5.89829 6.08135 6.06474L11.6992 16.0243C11.7547 16.1353 11.6853 16.2601 11.5605 16.2601C10.3676 16.3294 7.96784 13.5968 6.06748 9.94869ZM15.3335 27.6622C15.1809 27.9951 15.1254 28.3558 15.1809 28.6748C15.1809 28.7165 15.1947 28.7442 15.2086 28.7858L3.02968 22.6963C2.80774 22.1138 2.78 21.656 2.98807 21.3786C3.16839 21.1289 3.51517 21.0041 4.00067 21.0179C4.02841 21.0041 4.12551 21.0179 4.18099 21.0318C4.25035 21.0457 4.30583 21.0457 4.37519 21.0457C4.40293 21.0457 4.4168 21.0457 4.44455 21.0457L16.2906 26.8022C15.9299 26.8855 15.5554 27.2045 15.3335 27.6622ZM17.4003 28.7026C17.2616 28.9939 17.0535 29.2158 16.8177 29.3545C16.5819 29.4794 16.3599 29.5071 16.1657 29.41C15.9715 29.3129 15.8467 29.1326 15.7912 28.869C15.7357 28.6055 15.7912 28.3003 15.9299 28.009C16.1519 27.5374 16.5541 27.2461 16.9148 27.2461C16.998 27.2461 17.0951 27.26 17.1645 27.3016C17.5667 27.4958 17.6777 28.12 17.4003 28.7026ZM18.0522 13.7217C17.7609 14.7897 18.0938 15.9272 19.0787 17.1201C21.3674 19.9082 21.4923 22.2663 19.4671 24.5412C19.4116 24.5967 19.2729 24.7632 19.0787 24.9851C18.5655 25.5677 17.5667 26.719 17.3309 26.9548C17.2477 26.8438 17.1506 26.7606 17.0396 26.6913C16.9841 26.6635 16.9425 26.6496 16.887 26.6358L4.93004 20.4769C7.6488 19.5337 8.28688 17.4253 8.35623 14.332C9.68787 16.163 10.9779 17.3004 11.8657 17.3004C11.8934 17.3004 11.9211 17.3004 11.9489 17.3004C12.1015 17.2866 12.2263 17.3975 12.254 17.5501L12.5731 20.1995L14.6122 21.3092L14.4596 19.0482L12.6424 17.2866C12.5453 17.1895 12.5315 17.0369 12.6147 16.912C12.6841 16.8149 12.7534 16.6901 12.795 16.5514C13.3083 15.1088 12.5037 11.7936 10.8114 8.29801C10.423 7.50735 10.0208 6.75831 9.61851 6.06474C10.1456 5.07989 11.616 4.66375 12.587 4.4002L12.7673 4.34471C12.7812 4.35858 12.7812 4.35858 12.795 4.37245C12.8366 4.4002 16.6235 6.10636 24.0862 9.46319C21.9778 10.129 18.6764 11.5023 18.0522 13.7217ZM13.7105 19.3118L12.9753 18.0911L14.1128 19.1037L14.2238 20.5879L12.8089 19.8527L12.6979 18.2298L13.3221 19.5892C13.3637 19.6724 13.4747 19.714 13.5441 19.6585L13.655 19.5892C13.7383 19.5198 13.766 19.4089 13.7105 19.3118ZM24.6133 7.49348C24.4607 7.81252 24.4052 8.1593 24.4607 8.46447C24.4885 8.57544 24.5162 8.65866 24.5578 8.75576C20.5213 7.06347 13.4747 4.1089 13.336 4.05342C13.2944 4.02567 13.2528 3.99793 13.2389 3.99793C13.225 3.99793 13.225 3.98406 13.225 3.99793C13.225 3.99793 13.2112 3.98406 13.2112 3.97019C12.8505 3.33211 12.7673 2.86049 12.9615 2.54145C13.1418 2.26403 13.5441 2.09757 14.1821 2.06983L25.5565 6.67508C25.4733 6.70282 25.3762 6.73056 25.293 6.77218C25.0156 6.91089 24.7798 7.17444 24.6133 7.49348ZM26.7217 8.33962C26.5969 8.60318 26.4166 8.82512 26.1946 8.96383C25.9866 9.08867 25.7646 9.11641 25.5843 9.03319C25.404 8.94996 25.2791 8.7835 25.2236 8.53382C25.1682 8.28414 25.2098 7.99284 25.3346 7.72929C25.4595 7.46574 25.6398 7.2438 25.8617 7.10509C25.9866 7.03573 26.1253 6.99412 26.2501 6.99412C26.3333 6.99412 26.4027 7.00799 26.4721 7.03573C26.6524 7.11896 26.7772 7.28541 26.8327 7.53509C26.8743 7.78478 26.8327 8.07607 26.7217 8.33962Z" fill="#CAC4D0"/>
<path d="M11.1305 6.05085C12.1847 6.63344 12.6702 6.63344 12.8921 6.63344C12.9199 6.63344 12.9476 6.7028 12.9615 6.7028C12.9754 6.74441 12.9615 6.75828 12.9615 6.81377C12.9615 7.17442 12.7118 7.75701 12.8228 7.8125C12.9199 7.86798 13.3083 7.38249 13.3776 7.34087C13.3915 7.327 13.4192 7.31313 13.447 7.29926C13.5163 7.25765 13.4609 7.34087 13.4747 7.39636L13.4886 7.45184L13.5441 7.46571C13.6551 7.50733 13.447 7.79862 13.5163 7.8125C13.5163 7.82637 13.9325 7.79862 13.9325 7.8125C14.0573 7.97895 14.1822 7.68765 14.3486 7.64604C14.4041 7.63217 14.307 7.8125 14.3486 7.8125C14.3486 7.82637 14.5012 7.65991 14.4873 7.70152C14.4735 7.77088 14.2238 8.1454 14.3486 8.22863C14.4873 8.31186 14.6399 8.31186 15.0422 7.95121C14.9312 8.15928 15.1809 8.00669 15.2502 8.1454C15.4167 8.4367 15.9299 8.46444 16.3738 8.42283C16.3045 8.6309 16.0825 8.96381 16.138 9.04703C16.2351 9.17188 16.6374 9.07478 16.8316 9.04703C17.0119 9.01929 17.1367 8.96381 17.2477 9.04703C17.3171 9.10252 17.4142 9.08865 17.428 9.24123C17.428 9.32446 17.4974 9.39381 17.6084 9.4493C17.7332 9.50478 17.9135 9.56027 18.1077 9.56027C18.2464 9.56027 18.399 9.53253 18.51 9.46317L18.7735 8.90832C18.621 9.00542 18.0106 9.36607 17.858 9.32446C17.7193 9.28285 17.8026 9.32446 17.8026 9.04703C17.7887 8.82509 17.7887 8.728 17.6638 8.6309C17.4835 8.47831 16.998 8.65864 16.79 8.70025C16.7206 8.71412 16.6096 8.728 16.5541 8.728C16.5819 8.71412 16.6235 8.65864 16.6929 8.50606L16.8316 8.22863C17.0535 8.06218 16.5958 8.08992 16.5541 8.08992C15.9854 8.1454 15.6803 8.11766 15.5832 7.95121C15.4999 7.8125 15.4722 7.67378 15.6109 7.50733C15.9022 7.11893 15.9577 7.04958 15.8606 6.96635C15.7774 6.88312 15.7219 6.93861 15.4167 7.21603C15.2364 7.38249 14.8202 7.75701 14.6677 7.82637C14.6677 7.81249 14.6677 7.78475 14.6815 7.75701C14.7093 7.67378 14.8341 7.47959 14.7509 7.39636C14.6677 7.31313 14.4735 7.2299 14.3347 7.25765C14.2376 7.27152 14.1128 7.47959 14.0573 7.47959C14.1128 7.38249 14.2793 7.04958 14.196 6.99409C14.0712 6.89699 13.7383 7.17442 13.7105 7.18829C13.6828 7.21603 13.6689 7.25765 13.6828 7.29926C13.6689 7.29926 13.6412 7.25765 13.6551 7.28539C13.6273 7.21603 13.7244 6.86925 13.6412 6.84151C13.5441 6.7999 13.3221 7.11893 13.2528 7.16055C13.2389 7.17442 13.225 7.18829 13.1973 7.18829C13.1834 7.14668 13.1557 7.04958 13.1557 6.81377C13.1557 6.52247 13.2112 6.28666 12.9476 6.28666C12.7257 6.28666 12.4205 6.28666 11.4218 5.73181L11.1305 6.05085Z" fill="#CAC4D0"/>
<path d="M18.4822 10.989C18.4129 10.9058 18.2325 10.7671 18.0522 10.7255C17.9412 10.6977 17.858 10.7948 17.8719 10.8919C17.9274 11.1277 17.969 11.4606 17.858 11.5022C17.7748 11.5439 17.6083 11.53 17.6777 11.4329C17.8719 11.0722 17.3309 11.2248 17.1645 11.1693C17.4835 10.4896 16.9841 10.2122 16.3183 10.2955C16.0548 10.2955 15.7773 10.1706 15.7635 10.018C15.9577 9.15801 15.1809 9.60189 14.6676 9.99028L14.7925 9.87931C14.7647 9.87931 14.8063 9.7406 14.9312 9.7406L15.0699 9.60189C14.8896 9.6435 14.2931 9.47705 14.2376 9.75447C14.085 9.80996 14.1683 9.8377 14.0989 9.7406C14.0573 9.68512 14.1821 9.69899 14.2376 9.60189C14.2792 9.56028 14.5012 9.53253 14.515 9.42156C14.515 9.14414 14.0712 9.13027 13.9463 9.31059C13.9186 9.24124 14.0573 8.93607 14.1128 8.85284C14.1683 8.58929 13.7521 8.89446 13.6689 8.9222C12.8644 9.36608 12.5453 8.56155 11.935 8.27025C11.824 8.2009 11.7269 8.51993 11.6714 8.57542C11.9211 9.19962 12.6286 9.62963 13.4054 9.39382C13.6412 9.39382 13.3221 9.68512 13.6689 9.62963C13.6273 9.96254 13.8631 10.2122 14.196 10.0042C14.2376 10.0458 13.9879 10.1567 14.085 10.1845C14.1683 10.9058 14.3347 10.67 14.7786 10.3232C14.9312 10.2261 15.0976 10.129 15.1947 10.1845C15.3196 10.1845 15.278 10.4619 15.4167 10.6284C15.597 10.989 16.8454 10.6284 16.5819 11.2942C16.3877 11.6132 16.9703 11.641 17.2754 11.5716C17.2199 12.1126 18.3158 11.8352 18.1771 11.1277C18.5377 11.0306 17.9967 11.6964 17.8303 12.1265C17.747 12.2652 18.2048 12.6674 18.4683 12.2652L18.3435 12.1819C18.3435 11.8213 18.7458 11.2664 18.4822 10.989Z" fill="#CAC4D0"/>
<path d="M13.9463 13.0975C14.1128 13.0975 14.2931 12.7091 14.3486 12.5703C14.3625 12.6674 14.2376 12.8062 14.2238 12.9587C14.2099 13.0281 14.2654 13.3194 14.3625 13.3749C14.4596 13.4304 14.5983 13.1668 14.7093 13.0697C14.737 13.042 14.7509 12.9865 14.7786 12.9587L14.6399 13.2362C14.626 13.5413 14.6815 13.4997 14.7786 13.5136C14.8757 13.5275 15.0144 13.3055 15.0422 13.2084C15.0422 13.1807 15.056 13.1391 15.0699 13.0975C15.0838 13.1252 15.0838 13.1529 15.0977 13.1946C15.1254 13.3055 15.4444 13.4304 15.6248 13.4581C15.8051 13.4858 15.9577 13.4442 16.0686 13.3333C16.0825 13.3887 15.9854 13.7494 16.0409 13.7771C16.1519 13.8465 16.3461 13.5829 16.457 13.4997C16.4709 13.5552 16.5264 13.4858 16.5264 13.5275C16.5403 13.7078 16.5403 13.8881 16.679 13.9297C16.7483 13.9575 16.8038 13.9297 16.8732 13.8881C16.9287 14.0268 17.0258 14.1794 17.1783 14.2349C17.2061 14.2488 17.2477 14.2488 17.2754 14.2488C17.3864 14.2488 17.4974 14.1933 17.6222 14.0823L17.7332 13.9852L17.6083 13.9159C17.5945 13.9159 17.5945 13.9159 17.5806 13.9159C17.5667 13.9159 17.5529 13.7771 17.539 13.8881C17.5806 13.6384 17.4419 13.7633 17.4419 13.7771L17.3448 13.9159C17.3448 13.9575 17.3587 13.9852 17.3725 14.013C17.3309 14.0407 17.3448 13.9297 17.3032 13.9159C17.2477 13.902 17.2616 13.8465 17.3032 13.6939C17.3309 13.5829 17.2893 13.4858 17.22 13.4026L17.1367 13.3749H16.998L16.8177 13.6384C16.7761 13.68 16.8732 13.4997 16.8593 13.5136C16.8454 13.4581 16.8593 13.4304 16.8593 13.3749C16.8454 13.1946 16.8316 12.8755 16.7206 12.82C16.679 12.8062 16.4848 13.1252 16.4016 13.1946C16.3322 13.25 16.2906 13.2778 16.2628 13.2916C16.2628 13.2362 16.2767 13.1252 16.2767 13.0836C16.2906 13.0004 16.3877 12.7091 16.3045 12.6813C16.2074 12.6536 16.1241 12.7784 16.027 12.9587C15.9854 13.042 15.8328 13.0836 15.7496 13.0975C15.5554 13.1391 15.5415 13.0142 15.4722 12.9587C15.4167 12.7507 15.3057 12.4039 15.1948 12.4039C15.1531 12.4039 15.0006 12.8062 14.9728 12.82C14.9589 12.7923 14.9451 12.5565 14.9173 12.5426C14.8064 12.4871 14.7647 12.7091 14.6399 12.82V12.6813C14.6399 12.2652 14.7925 12.2236 14.6399 12.1265C14.3625 11.7103 14.1822 11.9184 14.1544 11.8352C14.1267 11.7658 14.0573 11.7242 13.9741 11.7381L13.9186 11.7519L13.9602 12.0294C13.9741 12.1265 14.0434 12.182 14.1128 12.2236C14.1822 12.3207 14.2099 12.4039 14.1822 12.4732C14.1544 12.5426 13.8909 12.6258 13.9741 12.5981C14.0989 12.5565 14.0018 12.4039 13.9602 12.279C13.8215 11.9045 13.6412 11.8352 13.5441 11.8629C13.447 11.8907 13.447 12.1958 13.4609 12.279C13.4609 12.3068 13.4747 12.3484 13.4747 12.39C13.3776 12.2652 13.4331 11.6132 13.1141 11.0306L12.6979 11.5161C13.3638 12.7645 12.6979 12.5565 13.2528 13.1113C13.2667 13.1252 13.6551 12.8478 13.6689 12.8339C13.7521 12.9171 13.8076 13.0975 13.9463 13.0975Z" fill="#CAC4D0"/>
<path d="M17.0396 16.801C17.109 16.7317 17.2338 16.6068 17.1506 16.371L17.1367 16.3294L17.0951 16.3155C16.9703 16.2739 16.8177 16.3572 16.6512 16.4404C16.5819 16.482 16.4709 16.5375 16.4154 16.5375C16.4154 16.5097 16.5125 16.3155 16.7206 16.1491C17.0812 15.8717 16.5957 15.7607 16.5819 15.7329C16.5125 15.6636 16.3044 15.9549 16.1519 15.9826C16.0686 15.9965 15.9022 16.0381 15.8744 16.0242C15.8744 16.0242 16.0548 16.0659 16.1657 15.8717V15.7329V15.5942C16.0825 15.4 15.9993 15.1781 15.8883 15.1781C15.8883 15.1781 15.5138 14.97 15.4722 15.1781C15.4583 15.2891 15.4722 15.4555 15.5276 15.622C15.5415 15.6913 15.3751 15.7191 15.3335 15.7329C15.3196 15.7329 15.3057 15.8578 15.0838 15.5388C15.0699 15.4417 15.0699 14.8036 14.9173 14.762C14.7786 14.7342 14.5983 15.2891 14.3625 15.6497C14.3347 15.6081 14.307 15.5526 14.2515 15.5388C14.1267 15.4833 14.0434 15.3862 13.9463 15.4694C13.877 15.511 13.7799 15.6913 13.7799 15.6913C13.7521 15.6775 13.7105 15.4971 13.7799 15.1781C13.8492 14.9007 13.9602 14.7897 13.9879 14.7897C13.9879 14.7897 14.0157 14.7897 14.0434 14.8452V15.2475H14.0573C14.1821 15.4694 14.2376 15.5665 14.3486 15.5249C14.4596 15.4833 14.5567 15.2891 14.4873 15.0394C14.4318 14.8174 14.2792 14.3597 14.0712 14.3458C13.9325 14.3458 13.4747 14.6371 13.3776 14.9007C13.2805 15.1642 13.3221 16.1352 13.5163 16.2878C13.5857 16.3294 13.766 16.3988 13.9325 16.2878C14.0573 16.2046 14.1405 15.7191 14.1544 15.7191C14.1683 15.7329 14.1821 15.7884 14.1821 15.8162C14.196 15.8717 14.1128 16.2739 14.2099 16.2878C14.2931 16.3017 14.6399 16.1768 14.626 16.0104C14.5983 15.5942 14.737 15.4694 14.7647 15.4555C14.9034 15.4555 14.7509 15.6497 14.7647 15.7329C14.8063 16.052 14.8896 16.1213 14.9034 16.1491C15.1254 16.4543 15.167 16.1768 15.3196 16.1491C15.486 16.1213 15.6664 15.83 15.708 15.6913C15.708 15.6775 15.708 15.6775 15.7218 15.6636C15.7357 15.6775 15.7357 15.7052 15.7496 15.7329C15.6664 15.8717 15.3751 16.1768 15.4583 16.3017C15.5554 16.4404 15.9993 16.2462 16.1796 16.2046C16.2073 16.2046 15.9854 16.4404 16.0131 16.4404C15.916 16.7317 16.0548 16.7733 16.1519 16.8565C16.2628 16.9536 16.5402 16.7178 16.7344 16.6346C16.8038 16.6068 16.9009 16.5513 16.9703 16.5236C16.9703 16.5791 16.9425 16.6207 16.887 16.6623C16.8454 16.7039 16.7761 16.7733 16.8038 16.8565C16.8454 17.0091 16.998 17.0785 18.9677 17.6749L18.94 17.1201C17.8996 16.801 17.2199 16.912 17.0396 16.801Z" fill="#CAC4D0"/>
<path d="M18.2464 21.6976L16.9287 22.7657L16.138 20.9763L15.6109 21.2815L16.7345 22.8628L14.9173 23.5009L15.3335 24.1944L16.8316 23.0431L17.5945 24.7909L18.1077 24.4719L17.0258 22.946L18.6626 22.2525L18.2464 21.6976Z" fill="#CAC4D0"/>
<path d="M9.02205 20.1718C8.93882 19.7695 8.61978 19.4366 8.21752 19.3672C7.49621 19.2285 6.87201 19.8527 7.01072 20.574C7.09395 20.9763 7.41299 21.3092 7.81525 21.3786C8.52268 21.5173 9.16076 20.8931 9.02205 20.1718ZM8.64752 20.5463C8.59204 20.7543 8.42558 20.9208 8.21752 20.9763C7.74589 21.1011 7.31589 20.685 7.44073 20.1995C7.49621 19.9914 7.66267 19.825 7.87074 19.7695C8.35623 19.6585 8.77237 20.0747 8.64752 20.5463Z" fill="#CAC4D0"/>
<path d="M8.02331 19.9776C7.95396 19.9776 7.91234 20.0469 7.92621 20.1163L7.94008 20.1995C8.20364 20.144 8.27299 20.2411 8.31461 20.3521C8.35622 20.4908 8.32848 20.6295 8.24525 20.6989C8.17589 20.7682 8.06493 20.7682 7.95396 20.7128C7.85686 20.6573 7.84299 20.6157 7.8846 20.4631L7.82911 20.4492C7.74589 20.4215 7.66266 20.4908 7.66266 20.574C7.66266 20.685 7.6904 20.8099 7.87073 20.8931C7.95395 20.9347 8.03718 20.9624 8.12041 20.9624C8.21751 20.9624 8.31461 20.9347 8.39783 20.8653C8.55042 20.7405 8.6059 20.5047 8.53655 20.2966C8.46719 20.144 8.35622 19.9498 8.02331 19.9776Z" fill="#CAC4D0"/>
<path d="M11.7685 22.6409C11.7685 22.627 11.8656 22.5438 11.8656 22.5299C11.8795 22.4467 12.0044 22.1138 11.6853 22.1554L11.6437 22.0999L11.5744 22.1138C11.505 22.1276 11.4911 22.1692 11.4634 22.2663L11.4218 22.2109L11.3663 22.1415L11.2831 22.1831C11.2137 22.2247 11.1027 22.2663 10.964 22.308C10.9224 22.308 10.9363 22.1276 10.8947 22.1138C10.8808 22.0305 10.853 22.0167 10.8947 21.9057C10.9501 21.7254 11.1305 21.4896 11.0334 21.4202C10.9363 21.3508 10.7005 21.5312 10.5895 21.6144C10.5479 21.6421 10.5201 21.6699 10.4924 21.6837C10.5479 21.6005 10.5756 21.5312 10.5201 21.4757C10.4785 21.4341 10.423 21.4202 10.3259 21.4618C10.4369 21.2954 10.4647 21.226 10.3814 21.1566C10.2982 21.0873 10.2288 21.115 9.77109 21.5589C9.66012 21.6699 9.54915 21.6976 9.45205 21.656C9.36883 21.6144 9.32721 21.5312 9.34108 21.4341C9.35496 21.3092 9.49367 21.2121 9.70174 21.1705C9.71561 21.1705 9.72948 21.1705 9.74335 21.1705C9.72948 21.1983 9.70174 21.226 9.67399 21.2537L9.77109 21.4341C9.88206 21.3786 10.1179 21.1428 10.0624 21.0179C10.0485 20.9763 9.85432 20.6989 9.64625 20.7405C9.21624 20.8237 8.96656 21.337 8.95269 21.4341C8.92495 21.6144 9.07753 21.9057 9.23011 21.9889C9.41044 22.0721 9.74335 21.8779 9.9098 21.7115C9.88206 21.767 9.89593 21.7947 9.92368 21.8363L9.99303 21.8918L10.0624 21.8502C10.0763 21.8363 10.104 21.8225 10.1179 21.8086C10.0763 21.8641 10.0624 21.9057 10.104 21.9612L10.1734 22.0305L10.2427 21.975L10.3121 22.1276C10.3953 22.1831 10.4092 22.0028 10.6866 21.7947C10.6866 21.8086 10.6727 21.8363 10.6727 21.8502C10.6172 22.0305 10.3953 22.5299 10.4508 22.6825C10.5063 22.8212 10.9779 22.6963 11.0056 22.6825C11.0611 22.6686 11.0889 22.4883 11.1305 22.4744C11.1305 22.516 10.9918 22.7796 11.0056 22.8212C11.0195 22.8767 11.0195 22.9599 11.1443 22.9599L11.3385 22.8212C11.4218 22.8212 11.4773 22.7518 11.5327 22.6547C11.5327 22.6963 11.5327 22.738 11.5744 22.7796C11.6437 22.8628 11.7963 23.0015 12.3095 23.0709C12.4344 23.0847 12.5453 22.9876 12.5315 22.8628V22.7518C12.3095 22.7241 11.8518 22.6825 11.7685 22.6409ZM11.3802 22.5299C11.3524 22.4467 11.3663 22.3912 11.4079 22.3496L11.4495 22.308C11.4356 22.3496 11.4079 22.4605 11.3802 22.5299Z" fill="#CAC4D0"/>
</svg>
