<svg width="21" height="32" viewBox="0 0 21 32" fill="none" xmlns="http://www.w3.org/2000/svg">
<path d="M13.8449 24.4042C13.8597 24.4042 13.8597 24.4042 13.8746 24.4042C13.8746 24.3894 13.8746 24.3894 13.8746 24.3745C13.8746 24.3894 13.8597 24.4042 13.8449 24.4042Z" fill="var(--ion-color-light)"/>
<path d="M20.4693 10.4424C20.4099 10.0562 20.3059 9.6849 20.2168 9.31357C20.1574 9.07593 20.098 8.82343 20.0386 8.57092C19.89 7.84312 19.7564 7.79856 19.1919 7.66489C19.1177 7.65003 19.0286 7.63518 18.9394 7.60548C18.6721 7.54606 18.4047 7.4718 18.1374 7.39753L17.9889 7.35297C17.9443 7.33812 17.9146 7.30842 17.9294 7.26386L18.1225 6.10532C18.1225 6.07561 18.1077 6.04591 18.0928 6.0162L16.0728 4.67943C16.0283 4.64972 15.954 4.67943 15.9391 4.73884L15.7906 5.45179C15.7758 5.49635 15.746 5.52605 15.7015 5.5112L14.5281 5.36267C14.4687 5.36267 14.439 5.30326 14.4538 5.24384L16.7858 -0.875606C16.8006 -0.920165 16.7858 -0.964724 16.7412 -0.979577L16.6818 -0.99443C16.6372 -1.00928 16.5927 -0.99443 16.5778 -0.949871L13.8894 5.09531V4.50119V4.48634L13.8449 4.2784C13.8152 4.12987 13.7706 3.99619 13.726 3.84766C13.3547 2.55544 12.5972 2.08015 11.3347 2.3475C10.9485 2.43662 10.8743 2.48118 10.7109 2.6C10.6812 2.61486 10.6515 2.64456 10.6069 2.67427C10.5772 2.70398 10.5178 2.68912 10.4881 2.65942C10.0128 2.095 9.68601 2.02074 8.88395 2.03559C7.42835 2.08015 5.97275 2.76339 4.76966 3.93678C4.16068 4.5309 3.83391 4.88737 3.67053 5.82311C3.65568 5.92708 3.68538 6.10532 3.7448 6.32811C3.75965 6.37267 3.71509 6.43209 3.67053 6.43209L3.31406 6.46179L3.22494 6.50635C3.09126 6.58062 2.95759 6.65488 2.82391 6.72915C2.40802 6.9668 2.09611 7.2193 1.7842 7.54606C0.789042 8.60063 0.0315377 10.6206 0.00183161 12.2396C-0.0130214 13.8586 0.0612442 15.2993 0.269187 16.5173C0.462276 17.7204 0.818749 19.473 1.41287 20.9286C1.87331 22.0575 2.49714 23.5131 3.2695 24.8498C3.80421 25.7707 4.38348 26.5282 4.9776 27.3303C5.12613 27.5382 5.28951 27.7462 5.45289 27.9541C6.25496 29.0384 6.9679 29.7513 7.82938 30.5831C7.90365 30.6574 7.99276 30.7316 8.08188 30.8208C8.20071 30.9396 8.33438 31.0584 8.45321 31.1772L8.48291 31.2069L8.18585 32.7814C8.171 32.8259 8.20071 32.8705 8.24527 32.8853L8.30468 32.9002C8.34924 32.915 8.3938 32.8853 8.40865 32.8408L8.79483 31.5931C8.80968 31.5337 8.88395 31.5189 8.92851 31.5486C9.25527 31.8456 9.59689 32.1427 9.96822 32.4843L9.99792 32.514C10.1019 32.6031 10.2504 32.7517 10.4138 32.7517C10.4435 32.7517 10.4732 32.7517 10.5029 32.7368H10.5178C12.2556 31.8456 14.8549 28.6968 15.9837 27.1521C17.1274 25.5776 18.1522 23.5279 18.6572 22.4437C19.4445 20.7653 19.9346 19.176 20.2762 17.2897C20.707 14.824 20.8852 12.9229 20.4693 10.4424ZM8.94336 26.9738L8.73542 28.0433C8.69086 28.266 8.6463 28.4888 8.60174 28.7116C8.51262 29.1572 8.4235 29.6177 8.33438 30.0633C8.26012 29.989 8.18585 29.9296 8.12644 29.8553C8.05218 29.7811 7.97791 29.7068 7.90365 29.6325C6.98276 28.7413 6.38864 28.1175 5.72025 27.1966C5.57172 26.9887 5.42319 26.7956 5.28951 26.6025C4.73995 25.8599 4.22009 25.1469 3.71509 24.2854C2.98729 23.0378 2.42288 21.6713 1.99214 20.6316C1.44258 19.28 1.11581 17.661 0.937573 16.5322C0.759337 15.4033 0.670218 14.0665 0.699924 12.5515C0.714777 11.2742 1.32375 9.32843 2.2892 8.27386C2.55655 7.9768 2.85361 7.75401 3.21009 7.54606C3.32891 7.4718 3.44774 7.41239 3.56656 7.35297L3.61112 7.33812L4.23495 7.27871L4.20524 7.15988C4.20524 7.13018 4.19039 7.08562 4.17553 7.04106C4.14583 6.90738 4.07156 6.64003 4.08642 6.56576C4.23495 5.7637 4.5023 5.46664 5.05186 4.91708C6.12128 3.84766 7.42835 3.22383 8.73542 3.19413C9.49292 3.17927 9.71571 3.22383 10.1613 3.81795L10.2207 3.89222L10.295 3.84766C10.4138 3.77339 10.4881 3.72883 10.5475 3.68428C10.6812 3.59516 10.7257 3.56545 11.0673 3.49119C12.1219 3.26839 12.7309 3.65457 13.0428 4.75369C13.0725 4.88737 13.1171 5.02105 13.1468 5.15473L13.1913 5.30326V5.31811V6.03105C13.1913 6.04591 13.1913 6.06076 13.1913 6.06076L8.48291 17.1857C8.46806 17.2302 8.40865 17.2451 8.36409 17.2302L8.11159 17.0669C8.06703 17.0372 8.06703 16.9629 8.11159 16.9332C8.1413 16.9035 8.18585 16.8738 8.21556 16.8589C8.24527 16.8292 8.26012 16.7995 8.24527 16.7549L8.06703 16.3539C8.03732 16.3094 7.97791 16.2945 7.93335 16.3242C7.71056 16.5024 7.35408 16.7698 7.13129 16.8441C6.24011 17.1411 5.37863 17.1114 4.60627 16.9926C4.01215 16.9035 3.81906 16.8144 3.46259 16.3242C3.43288 16.2796 3.37347 16.2796 3.34376 16.3094L3.017 16.5619C2.98729 16.5916 2.97244 16.6361 3.00214 16.6807C3.16553 16.9035 3.32891 17.0669 3.522 17.1857C3.56656 17.2154 3.56656 17.2897 3.522 17.3194L2.77935 17.8244C2.73479 17.8541 2.73479 17.9283 2.77935 17.958L3.19523 18.27C3.23979 18.2997 3.29921 18.2848 3.31406 18.2402L3.80421 17.3936C3.81906 17.3639 3.86362 17.3491 3.90818 17.3491C4.07156 17.4085 4.26465 17.4382 4.47259 17.4827C4.5023 17.4827 4.53201 17.4976 4.56171 17.4976L3.92303 18.9829C3.90818 19.0275 3.93789 19.0869 3.98245 19.1017L4.53201 19.2057C4.57657 19.2205 4.62112 19.176 4.63598 19.1314L4.76966 17.6164C4.76966 17.5719 4.81421 17.5422 4.85877 17.5422C5.08157 17.557 5.33407 17.5719 5.60143 17.5867C5.64598 17.5867 5.69054 17.6313 5.69054 17.6907L5.39348 19.5919C5.37863 19.6364 5.42319 19.6958 5.4826 19.6958H6.18069C6.24011 19.6958 6.26981 19.6513 6.26981 19.5919L5.94305 17.6907C5.92819 17.6461 5.97275 17.6016 6.01731 17.5867C6.31437 17.5719 6.62628 17.557 6.90849 17.4976C6.95305 17.4827 6.99761 17.5273 7.01246 17.5719L7.16099 19.1166C7.16099 19.176 7.23526 19.2057 7.27982 19.1908L7.6957 18.9829C7.74026 18.968 7.75512 18.9235 7.74026 18.8789L7.23526 17.5273C7.22041 17.4827 7.25011 17.4233 7.29467 17.4233C7.42835 17.3788 7.54717 17.3342 7.666 17.2897C7.72541 17.2599 7.76997 17.2302 7.81453 17.2005C7.85909 17.1708 7.9185 17.2005 7.93335 17.2451L8.20071 18.0323C8.20071 18.0472 8.20071 18.0769 8.20071 18.0917L6.61143 21.5822L6.55202 21.7159H10.0128C10.0722 21.7159 10.1019 21.7604 10.1019 21.8198L9.64145 24.122C9.6266 24.1963 9.53748 24.2112 9.49292 24.1666C9.41865 24.0923 9.34439 24.0181 9.32954 24.0032C9.03248 23.8101 8.676 24.122 8.46806 24.3151L8.40865 24.3746C8.34924 24.434 8.21556 24.5379 8.06703 24.6568C7.60659 25.0281 7.25011 25.3251 7.17585 25.444C7.17585 25.444 6.73026 26.2906 6.83423 26.4837C6.86393 26.5282 6.89364 26.5579 6.95305 26.5579H6.9679C7.13129 26.5282 7.22041 26.454 7.32438 26.3797C7.47291 26.2757 7.63629 26.1569 8.06703 26.1718C8.34924 26.1866 8.36409 26.2163 8.3938 26.3054C8.4235 26.4094 8.48291 26.5728 8.76512 26.7659C8.82453 26.7956 8.9285 26.8699 9.03248 26.8996C8.9285 26.8996 8.94336 26.9293 8.94336 26.9738ZM8.86909 25.9935C8.676 25.9044 8.66115 25.845 8.63144 25.7856C8.58689 25.6816 8.51262 25.6371 8.21556 25.6222C8.18585 25.6222 8.15615 25.6222 8.14129 25.6222C7.78482 25.6222 7.63629 25.6965 7.50261 25.7559C7.45805 25.7856 7.4135 25.8004 7.35408 25.8153C7.39864 25.6965 7.57688 25.4143 7.60658 25.3846C7.666 25.3251 8.06703 25.0875 8.30468 24.9538C8.4235 24.8796 8.52747 24.8201 8.58689 24.7904L8.63144 24.7607C8.76512 24.6716 9.00277 24.5231 9.13645 24.5825C9.16615 24.5973 9.28498 24.6865 9.35924 24.7607C9.3741 24.8053 9.38895 24.8498 9.4038 24.8944L9.28498 25.3251C9.27012 25.3549 9.24042 25.3846 9.19586 25.3846H8.88395V25.5034H9.12159C9.18101 25.5034 9.21071 25.5628 9.19586 25.6074L9.06218 26.0678C9.03248 26.0529 8.94336 26.0232 8.86909 25.9935ZM9.16615 27.5382L10.3395 21.3891L10.3692 21.2703H7.33923C7.27982 21.2703 7.25011 21.2109 7.26497 21.1514L12.9982 8.14019C13.0428 8.05107 13.1765 8.11048 13.1468 8.1996L8.66115 20.0523C8.6463 20.0969 8.676 20.1563 8.73542 20.1563L11.4684 20.2603C11.5278 20.2603 11.5575 20.3197 11.5426 20.3642L10.295 24.4191C10.2207 24.6716 10.087 25.1023 9.83454 25.9044L9.74542 26.2015L9.32954 27.5531C9.28498 27.6868 9.1513 27.6422 9.16615 27.5382ZM19.593 17.2005C19.2959 18.8641 18.8503 20.2603 18.1522 21.7456C17.7066 22.711 16.7858 24.5231 15.7609 25.9044C14.5875 27.4788 12.3447 30.0781 10.9188 30.8059C10.904 30.8059 10.8891 30.8208 10.8743 30.8208C10.8 30.8059 10.696 30.7168 10.6366 30.6574L10.6069 30.6277C10.2207 30.2861 9.8791 29.9741 9.55233 29.6919C9.52263 29.6771 9.52263 29.6325 9.52263 29.6028L10.4732 26.5728C10.5178 26.5431 10.5475 26.5431 10.592 26.5134C10.7406 26.5579 10.9337 26.5728 11.1416 26.5728C11.5278 26.5728 11.9585 26.5282 12.211 26.4688C12.9388 26.3054 13.934 25.7262 14.4241 25.1915C14.6766 24.9241 14.9885 24.3597 14.944 23.9735C14.9291 23.9141 14.9291 23.8547 14.8697 23.825C14.8252 23.8101 14.7955 23.8101 14.736 23.825C14.6024 23.8993 14.4835 24.0032 14.3796 24.1072C14.2162 24.2706 14.0528 24.4191 13.8746 24.4043C13.8746 24.6271 13.6815 24.939 13.5329 25.1024C13.1765 25.4737 12.419 25.8747 11.8991 25.9935C11.6021 26.0678 11.0079 26.1272 10.7257 26.0678C10.696 26.0678 10.6663 26.0529 10.6515 26.0529L10.8743 25.3697C10.8891 25.34 10.9188 25.3103 10.9485 25.3103L12.0773 25.2806V25.1469L11.0525 25.1766C10.9931 25.1766 10.9485 25.1172 10.9634 25.0726L11.0376 24.8647C11.0673 24.7756 11.0822 24.7162 11.097 24.6716C11.097 24.6568 11.1119 24.6419 11.1119 24.6419C11.201 24.5528 11.5872 24.2706 11.6615 24.226C11.8546 24.1072 11.9734 24.1666 12.1962 24.3151C12.2259 24.33 12.2556 24.3448 12.2853 24.3746C12.6121 24.5676 13.0131 24.8053 13.1616 24.8201C13.3844 24.8498 13.5627 24.6865 13.7112 24.5528C13.7557 24.5082 13.8152 24.4637 13.8597 24.434C13.7706 24.4191 13.429 24.226 12.8497 23.8101C12.82 23.7804 12.7754 23.7507 12.7457 23.7359C12.4784 23.5428 12.211 23.3348 11.8248 23.5873C11.7951 23.6022 11.6763 23.7062 11.5278 23.8101C11.4684 23.8547 11.3644 23.7953 11.3941 23.721L12.5229 20.082C12.5378 20.0375 12.5081 19.9781 12.4487 19.9781L9.52263 19.8592C9.46321 19.8592 9.43351 19.7998 9.44836 19.7553L14.4241 6.84797C14.439 6.81826 14.4687 6.78856 14.5132 6.80341L15.8203 6.9668C15.8649 6.9668 15.9094 6.93709 15.9094 6.90738L16.0134 6.40238C16.0283 6.34297 16.0877 6.31326 16.1471 6.35782L17.6027 7.30842C17.6324 7.32327 17.6472 7.35297 17.6324 7.38268L17.4541 8.4521C17.4541 8.49666 17.469 8.52636 17.5136 8.54122L17.8106 8.63034C18.0483 8.68975 18.3008 8.76401 18.5384 8.82343C18.6275 8.83828 18.7018 8.86798 18.7761 8.88284C19.2365 8.98681 19.2811 9.00166 19.385 9.53637C19.4296 9.75917 19.489 9.98196 19.5484 10.2048C19.6375 10.5315 19.7118 10.8731 19.7712 11.1999C20.1425 13.3536 19.9792 15.032 19.593 17.2005Z" fill="var(--ion-color-light)"/>
<path d="M15.1668 10.3978L13.7706 12.403L16.6224 12.3733L15.1668 10.3978ZM15.2113 11.2147L15.8203 11.9425L14.6321 11.9574L15.2113 11.2147Z" fill="var(--ion-color-light)"/>
<path d="M18.4047 14.9875C18.375 14.9578 18.3156 14.9578 18.2859 14.9875L17.2759 15.8935C17.2462 15.9233 17.2016 15.9233 17.1571 15.8935C16.964 15.7302 16.7561 15.5965 16.5184 15.4777C16.4887 15.448 16.4441 15.4331 16.3996 15.4034C16.355 15.3737 16.3402 15.3143 16.3699 15.2697L17.6769 13.8141C17.7066 13.7696 17.7066 13.7101 17.6621 13.6804L17.0977 13.3388C17.0531 13.3091 16.9937 13.324 16.9788 13.3834L16.1174 15.2252C16.1025 15.2697 16.058 15.2846 16.0134 15.2697C15.8649 15.24 15.7015 15.2103 15.5232 15.1955C15.4341 15.1657 15.3153 15.1657 15.1816 15.1657C15.1222 15.1657 15.0925 15.1212 15.0925 15.0618L15.5084 12.9675C15.5232 12.9081 15.4787 12.8635 15.4193 12.8635H14.5875C14.5281 12.8635 14.4984 12.9081 14.4984 12.9675L14.8252 15.0766C14.84 15.1212 14.7955 15.1806 14.736 15.1806C14.5429 15.1955 14.3796 15.2103 14.2459 15.2549C14.1419 15.2697 14.0379 15.2994 13.934 15.3291C13.8894 15.344 13.8449 15.3588 13.8003 15.3737L13.0279 13.4131C13.0131 13.3685 12.9537 13.3388 12.9091 13.3685L12.3447 13.7101C12.3001 13.7399 12.2853 13.7993 12.315 13.8438L13.5924 15.448C13.5329 15.4777 13.4735 15.5074 13.4141 15.5371C13.1468 15.6856 12.8943 15.8638 12.6566 16.0866C12.6121 16.1163 12.5526 16.1163 12.5229 16.0718L11.8694 15.0469C11.8397 15.0024 11.7654 14.9875 11.7357 15.0321L11.4238 15.3885C11.3941 15.4182 11.3941 15.4777 11.4387 15.5074L12.3596 16.25C12.4041 16.2797 12.4041 16.3391 12.3744 16.3688C12.2556 16.4877 12.1368 16.6213 12.0328 16.7699C12.0031 16.7996 12.0031 16.8441 12.0328 16.8887L12.1962 17.0669C12.2407 17.1115 12.315 17.1115 12.3298 17.0521C12.5972 16.5471 12.8497 16.354 13.1616 16.1163C13.1616 16.2352 13.1468 16.2055 13.1913 16.3094L13.2062 16.354C13.5032 17.1561 13.8003 17.9878 14.0825 18.7899C14.2013 19.1315 14.3202 19.4731 14.439 19.8296C14.439 19.8445 14.4538 19.8742 14.4538 19.889C14.4687 19.9336 14.4835 19.993 14.5281 20.0375L14.6321 20.1712L14.7509 20.0078V19.993L15.9985 17.3788C16.1322 17.0818 16.2808 16.7996 16.4144 16.5174L16.563 15.9827C17.0383 16.2797 17.3947 16.7699 17.7066 17.3788C17.7364 17.4234 17.7958 17.4383 17.8403 17.4086L18.078 17.2155C18.1077 17.1858 18.1225 17.1412 18.0928 17.1115C17.9146 16.755 17.7066 16.458 17.469 16.2055C17.4244 16.1609 17.4393 16.1015 17.4987 16.0718L18.7018 15.4628C18.7612 15.4331 18.7612 15.3588 18.7167 15.3291L18.4047 14.9875ZM14.4984 15.9232C14.5132 15.9084 14.5281 15.8787 14.5727 15.8638C14.7063 15.8341 14.8549 15.8193 14.9885 15.8193C15.048 15.8193 15.1222 15.8193 15.1816 15.8341C15.1816 15.8341 15.1816 15.8341 15.1965 15.8341C15.2113 15.8341 15.2262 15.849 15.2262 15.8638C15.241 15.8787 15.241 15.9381 15.1816 16.1015C15.048 16.4134 14.9291 16.7105 14.8103 17.0075C14.7806 16.9184 14.736 16.7996 14.7212 16.7253C14.7063 16.6808 14.6915 16.651 14.6915 16.6362C14.6618 16.5471 14.6321 16.4431 14.6024 16.3688C14.5132 16.1609 14.4538 15.9975 14.4984 15.9232ZM16.1768 16.1758L16.0431 16.4283C15.9243 16.6659 15.7906 16.8887 15.6718 17.1263L14.6618 19.0869C14.5578 18.8196 14.4687 18.5671 14.3647 18.2997C14.1271 17.6462 13.8597 16.9778 13.6072 16.3243L13.5924 16.2946C13.5181 16.1163 13.4884 16.0421 13.6072 15.9381C13.6369 15.9084 13.6666 15.8935 13.7112 15.8638C13.8003 15.8193 13.9043 15.7747 14.0082 15.745C13.9637 15.9233 14.0677 16.146 14.2013 16.4283C14.2459 16.5322 14.3053 16.651 14.3647 16.7847C14.3796 16.8144 14.3944 16.859 14.4093 16.9036C14.5727 17.3194 14.6321 17.4531 14.6618 17.4977L14.7509 17.6016L14.8549 17.468L14.8697 17.4531C15.0925 17.0075 15.3302 16.5471 15.5827 16.0718C15.6718 15.8935 15.7163 15.7747 15.7015 15.6707C15.8946 15.7153 16.058 15.7599 16.2362 15.8341C16.251 15.849 16.2659 15.8638 16.2808 15.8787C16.2808 15.9381 16.2659 16.0272 16.1768 16.1758Z" fill="var(--ion-color-light)"/>
<path d="M6.28467 13.2496C7.161 13.2496 7.87394 12.5366 7.87394 11.6603C7.87394 10.784 7.161 10.071 6.28467 10.071C5.40834 10.071 4.69539 10.784 4.69539 11.6603C4.69539 12.5366 5.40834 13.2496 6.28467 13.2496ZM6.31437 10.6206C6.89364 10.6206 7.35408 11.0811 7.35408 11.6603C7.35408 12.2396 6.89364 12.7 6.31437 12.7C5.7351 12.7 5.27466 12.2396 5.27466 11.6603C5.27466 11.0811 5.7351 10.6206 6.31437 10.6206Z" fill="var(--ion-color-light)"/>
<path d="M6.53717 15.5964C6.62628 15.641 6.6857 15.6855 6.77482 15.7301L7.05702 15.3588C6.98276 15.3142 6.7154 15.1063 6.61143 15.0617C5.86878 14.7052 5.25981 14.8686 4.53201 15.2102L4.66568 15.7004C5.36378 15.3885 5.85393 15.2697 6.53717 15.5964Z" fill="var(--ion-color-light)"/>
</svg>
