<svg width="50" height="51" viewBox="0 0 50 51" fill="none" xmlns="http://www.w3.org/2000/svg">
<g clip-path="url(#clip0_208_1460)">
<path d="M35.1646 6.69374C34.8729 6.36145 34.3479 6.52708 34.2646 6.96041C33.8406 9.15833 32.2854 10.5594 32.2854 10.5594C30.6 4.48854 25.5125 1.48333 23.6208 0.553119C23.2823 0.386453 22.9021 0.631244 22.8823 1.00729C22.6146 6.12291 19.775 8.68124 19.775 8.68124C18.5625 7.58854 18.0552 6.49583 17.8427 5.77291C17.7333 5.39999 17.2823 5.26458 16.9969 5.52812C15.1396 7.24062 10.1427 12.4958 9.43437 20.0385C8.89479 25.7833 12.1698 31.2969 17.4073 34.0615C17.8865 34.3146 18.3854 33.7656 18.0875 33.3135C17.3125 32.1375 16.8625 30.749 16.8625 29.2604C16.8625 24.4396 19.0698 21.7917 20.1677 20.7729C20.4771 20.4854 20.8625 20.5885 21.0031 20.9865C22.2021 24.3875 23.8427 24.6865 24.4177 24.6792C24.5469 24.6771 24.6719 24.6219 24.7667 24.5344C26.7875 22.674 26.8406 20.3146 26.6396 18.9135C26.574 18.4594 27.0958 18.1615 27.4667 18.4333C29.3896 19.8437 33.1417 23.3542 33.1417 29.2604C33.1417 30.75 32.6917 32.1375 31.9167 33.3146C31.6208 33.7635 32.1156 34.3135 32.5927 34.0646C37.5052 31.4917 40.6292 26.6094 40.6292 21.8312C40.6292 13.8031 36.8521 8.61041 35.1687 6.69374H35.1646Z" fill="var(--ion-color-light)"/>
<path d="M11.6198 46.5281C10.5771 47.0146 10.126 48.2542 10.6125 49.2969C11.099 50.3396 12.3385 50.7906 13.3812 50.3042L22.5354 46.0354L17.6052 43.7365L11.6198 46.5281Z" fill="var(--ion-color-light)"/>
<path d="M38.3802 46.5281L29.9302 42.5875L34.151 40.6188C35.1938 40.1323 35.6448 38.8927 35.1583 37.85C34.6719 36.8073 33.4323 36.3563 32.3896 36.8427L25 40.2885L17.6104 36.8427C16.5677 36.3563 15.3281 36.8073 14.8417 37.85C14.3552 38.8927 14.8063 40.1323 15.849 40.6188L36.6188 50.3042C37.6615 50.7906 38.901 50.3396 39.3875 49.2969C39.874 48.2542 39.4229 47.0146 38.3802 46.5281Z" fill="var(--ion-color-light)"/>
</g>
<defs>
<clipPath id="clip0_208_1460">
<rect width="50" height="50" fill="white" transform="translate(0 0.5)"/>
</clipPath>
</defs>
</svg>
