<svg width="42" height="43" viewBox="0 0 42 43" fill="none" xmlns="http://www.w3.org/2000/svg">
<path d="M21 0.666656C16.8796 0.666656 12.8516 1.88851 9.42562 4.17771C5.9996 6.4669 3.32933 9.72062 1.75251 13.5274C0.175683 17.3342 -0.236886 21.5231 0.566973 25.5644C1.37083 29.6056 3.35501 33.3178 6.26861 36.2314C9.1822 39.145 12.8943 41.1292 16.9356 41.933C20.9769 42.7369 25.1658 42.3243 28.9726 40.7475C32.7794 39.1707 36.0331 36.5004 38.3223 33.0744C40.6115 29.6483 41.8333 25.6204 41.8333 21.5C41.8273 15.9765 39.6304 10.681 35.7247 6.7753C31.819 2.8696 26.5235 0.672722 21 0.666656ZM36.4396 27.75H22.3729L16.6646 14.4292C16.5594 14.1739 16.4046 13.9421 16.209 13.7472C16.0135 13.5523 15.7812 13.3982 15.5255 13.2938C15.2699 13.1895 14.9961 13.137 14.7201 13.1395C14.444 13.1419 14.1711 13.1991 13.9174 13.3079C13.6636 13.4167 13.434 13.5749 13.2419 13.7732C13.0499 13.9715 12.8991 14.206 12.7984 14.463C12.6977 14.7201 12.6492 14.9946 12.6555 15.2706C12.6619 15.5467 12.723 15.8187 12.8354 16.0708L17.8417 27.75H5.56042C4.5317 25.2195 4.1407 22.475 4.42184 19.7579C4.70298 17.0408 5.64764 14.4345 7.17268 12.1683C8.69772 9.90206 10.7564 8.0454 13.1676 6.7617C15.5787 5.47801 18.2684 4.80662 21 4.80662C23.7316 4.80662 26.4213 5.47801 28.8324 6.7617C31.2436 8.0454 33.3023 9.90206 34.8273 12.1683C36.3524 14.4345 37.297 17.0408 37.5782 19.7579C37.8593 22.475 37.4683 25.2195 36.4396 27.75Z" fill="var(--ion-color-light)"/>
</svg>
