<svg width="30" height="30" viewBox="0 0 30 30" fill="none" xmlns="http://www.w3.org/2000/svg">
<g clip-path="url(#clip0_742_917)">
<path d="M14.8199 22.3371C15.4409 22.3224 16.2689 22.3371 16.8455 22.2484C18.812 21.9527 20.3793 21.5239 21.6065 20.9473C21.6952 20.903 21.8135 20.9325 21.8726 21.0064L24.6227 24.8359C24.6966 24.9394 24.8297 24.9542 24.9184 24.8803L25.155 24.688C25.2437 24.6141 25.2585 24.481 25.1846 24.3923L22.3605 20.7551C22.2866 20.6516 22.3162 20.5037 22.4197 20.4446C23.7652 19.6905 25.6429 18.3303 26.5892 17.0144C26.6779 16.8961 26.7518 16.7926 26.8405 16.6743C27.2102 16.1716 27.565 15.6984 27.8164 15.0922L27.8755 14.9592C28.186 14.1903 28.2008 14.1016 27.565 13.5398C27.432 13.4215 27.2989 13.3032 27.1658 13.1849C26.7962 12.8448 26.4118 12.49 25.9978 12.1795C25.9238 12.1351 25.8943 12.1351 25.8943 12.1351C25.8943 12.1351 25.9978 12.0464 26.0421 11.9873L29.9751 8.4979C30.0194 8.46833 30.0194 8.3944 29.9899 8.36483C29.8568 8.20219 29.4724 7.89169 29.4428 7.84734C29.3984 7.80298 29.3245 7.80298 29.2801 7.84734L25.776 11.5437C25.6725 11.662 25.4803 11.6176 25.4211 11.4846L23.8982 7.75862L23.8095 7.77341C23.085 7.93605 22.3753 8.15783 21.71 8.36483C21.222 8.51269 20.7193 8.67533 20.2166 8.8084C20.0392 8.85275 20.054 8.74925 20.1279 8.58661L23.1589 3.67782C23.2033 3.60389 23.1885 3.51518 23.1146 3.45604C22.8928 3.30818 22.4492 3.07162 22.4049 3.05683C22.3457 3.02726 22.2275 3.07162 22.1979 3.11597L19.6843 8.43876C19.6104 8.58661 19.4774 8.61618 19.3886 8.46833L17.6883 5.68865C17.6144 5.58515 17.4665 5.55558 17.3778 5.6443L15.0121 7.66991C14.8791 7.7882 14.8051 7.87691 14.8051 7.74384L15.2487 1.09036C15.2487 1.046 15.2487 1.046 15.2487 1.046C15.2487 0.986857 14.7016 1.00164 14.6425 1.00164C14.5833 1.00164 14.0659 0.986857 14.0659 1.046L14.2137 7.55163C14.2137 7.71427 14.2433 7.93605 14.1102 7.83255L11.2418 5.70344C11.1383 5.62951 11.0052 5.65908 10.9313 5.76258L9.05356 8.77883C8.96485 8.9119 8.83178 8.88232 8.74307 8.74925L5.80075 2.82026C5.77118 2.76112 5.71203 2.79069 5.65289 2.82026L4.76576 3.41168C4.70662 3.44125 4.58833 3.5004 4.61791 3.55954L8.31429 8.88232C8.403 9.03018 8.41778 9.11889 8.24036 9.10411L5.12061 8.71968C5.01711 8.7049 4.91362 8.77883 4.89883 8.86754L3.98213 12.1351C3.93777 12.283 3.77513 12.3421 3.65685 12.2386L-0.0691037 8.61618C-0.0986748 8.58661 -0.143031 8.58661 -0.172602 8.6014C-0.24653 8.63097 -0.394385 8.74925 -0.630953 9.03018C-0.985806 9.45896 -1.03016 9.57724 -0.985806 9.60681L3.44985 12.5639C3.55335 12.6378 3.68642 12.9188 3.5977 13.0075C2.69579 13.9242 2.23744 14.4121 1.39466 15.7724C1.36509 15.8167 1.35031 15.8463 1.32074 15.8907C1.27638 15.9646 1.23202 16.0385 1.18767 16.1124C0.862384 16.6743 0.906741 16.8813 1.42423 17.2509C1.7643 17.4875 2.08958 17.7241 2.41486 17.9458C3.64206 18.8182 4.79533 19.6314 6.30345 20.3559C6.42174 20.415 6.61395 20.5185 6.77659 20.6072C6.89488 20.6664 6.92445 20.8142 6.85052 20.9177L3.8047 25.102C3.73077 25.2055 3.77513 25.3682 3.89342 25.4273L4.17434 25.5456C4.26305 25.59 4.38134 25.5456 4.42569 25.4717L7.33844 21.036C7.39758 20.9473 7.50108 20.9177 7.60458 20.9621C9.23099 21.6718 10.2808 21.9232 12.1437 22.2336C12.7943 22.3371 13.4744 22.3519 14.1841 22.3667C14.3024 22.3667 14.3911 22.4702 14.3911 22.5885L14.3616 24.2888C14.3616 24.4071 14.2581 24.4958 14.1546 24.4958C12.6169 24.4663 10.7983 24.1853 9.36406 23.7418C8.403 23.4461 7.88551 23.2095 7.11666 22.692C7.0723 22.6624 6.99837 22.6772 6.9688 22.7216C6.93923 22.7659 6.95402 22.8399 6.99837 22.8842C7.76722 23.4017 8.32907 23.6678 9.30491 23.9636C10.7539 24.4071 12.5873 24.688 14.1398 24.7176C14.2581 24.7176 14.3468 24.8211 14.3468 24.9394L14.2581 27.7782C14.2581 27.8965 14.3468 27.9852 14.4651 28H14.6277C14.746 28 14.8495 27.9113 14.8495 27.793V24.7028C14.9086 24.7028 14.7903 24.7028 14.8495 24.7028C15.1156 24.7028 15.2783 24.6585 15.5148 24.6289C16.949 24.4958 19.0338 24.1706 20.7489 23.3869C21.015 23.2686 21.296 23.1356 21.5621 23.0025L21.71 22.9286C21.7691 22.899 21.7839 22.8399 21.7543 22.7807C21.7247 22.7216 21.6656 22.7068 21.6065 22.7216L21.4586 22.7955C21.1925 22.9286 20.9263 23.0616 20.6602 23.1799C18.9599 23.9488 16.9195 24.274 15.4853 24.4071C15.2043 24.4367 15.16 24.4071 14.8791 24.4071M21.8282 8.86754C22.3162 8.7049 22.8337 8.54226 23.3512 8.40919C23.4547 8.37962 23.5582 8.43876 23.6025 8.54226L24.8001 11.5733L24.2383 11.1889C23.7947 10.8932 23.3659 10.6714 22.9076 10.4496C22.8041 10.4052 22.7006 10.3461 22.6119 10.3017C22.5232 10.2574 22.4492 10.213 22.3605 10.1687C21.9022 9.9321 21.4438 9.75467 20.9707 9.56246C20.9263 9.54767 20.8672 9.5181 20.8228 9.50332C20.7489 9.47374 20.6602 9.44417 20.5863 9.4146C20.5271 9.38503 20.4384 9.34068 20.3201 9.3111C20.8376 9.17803 21.3403 9.01539 21.8282 8.86754ZM17.2891 6.50186C17.3926 6.42793 17.5257 6.44271 17.5996 6.54621L18.9894 8.67533C18.9599 8.67533 18.9451 8.66054 18.9155 8.66054C18.8711 8.64576 18.8268 8.64576 18.7676 8.61618C18.3684 8.48311 18.0727 8.40919 17.6292 8.35005C17.4074 8.30569 17.1708 8.27612 16.9195 8.24655C16.8455 8.23176 16.7716 8.23176 16.6829 8.21698C16.2098 8.15783 15.7366 8.11348 15.2635 8.14305L17.2891 6.50186ZM11.1383 6.70885C11.1975 6.60535 11.3453 6.57578 11.434 6.64971L13.4892 8.14305H13.4744C13.3266 8.14305 13.1935 8.14305 13.0457 8.15783C12.2472 8.1874 11.5967 8.32047 10.7835 8.4979C10.3843 8.58661 10.1477 8.64576 9.80762 8.77883L11.1383 6.70885ZM9.45277 9.9321L9.46756 9.91731C10.0294 9.63639 10.3547 9.56246 10.8574 9.45896C10.9757 9.42939 11.094 9.4146 11.2418 9.37025L11.3157 9.35546C11.5967 9.29632 11.848 9.23718 12.0994 9.19282C12.5282 9.11889 12.9569 9.07454 13.3709 9.04496C13.4301 9.04496 13.4892 9.04496 13.5484 9.03018C13.8145 9.01539 14.0954 9.01539 14.3468 9.00061C14.4503 9.00061 14.5538 9.00061 14.6573 9.00061C15.0861 9.00061 15.4705 9.01539 15.8253 9.05975C15.9732 9.07454 16.1063 9.08932 16.2541 9.10411C16.402 9.13368 16.5646 9.14846 16.7125 9.17803L16.8899 9.2076C16.9195 9.2076 16.949 9.22239 16.9786 9.22239C17.4813 9.3111 17.7918 9.39982 18.2354 9.5181C18.3241 9.54767 18.4128 9.57724 18.5015 9.60681L18.8268 9.7251C18.9155 9.75467 19.019 9.79903 19.1077 9.8286C19.1964 9.85817 19.2704 9.88774 19.3591 9.91731C19.3886 9.9321 19.4034 9.94688 19.433 9.96167C19.8026 10.2722 20.0836 10.5827 20.2166 10.9671C20.8524 12.8448 20.8524 14.4121 20.2314 15.6097C19.6104 16.8074 18.3389 17.7093 16.4463 18.2563C15.2339 18.6112 13.1344 18.4486 11.8924 18.0937C11.508 17.9754 10.9018 17.7536 10.5025 17.5466C9.27534 16.8813 8.47693 15.9794 8.04815 14.8113C7.78201 14.072 7.72286 13.0371 7.92986 12.283C8.06293 11.7803 8.24036 11.4402 8.44735 11.041L8.69871 10.6122L8.92049 10.2574C8.93528 10.2278 8.95006 10.1982 8.96485 10.1834C8.99442 10.1391 8.99442 10.1391 9.05356 10.1095L9.45277 9.9321ZM5.60853 9.32589L8.16643 9.65117C7.64894 9.90252 7.13144 10.1687 6.67309 10.4644C6.37738 10.6566 5.40154 11.3367 4.66226 12.0169L5.37197 9.47374C5.41632 9.38503 5.50504 9.3111 5.60853 9.32589ZM27.1806 15.0775L27.1215 15.1957C26.8849 15.7132 26.5596 16.142 26.19 16.6004C26.116 16.7039 26.0273 16.8074 25.9534 16.9109C25.0663 18.0789 22.8928 19.6166 21.429 20.3263C20.2314 20.9029 18.6641 21.3317 16.6385 21.6127C15.2191 21.8049 13.5484 21.8049 12.1289 21.5831C10.0294 21.2578 8.52128 20.7995 6.54002 19.9123C5.09104 19.2618 3.98213 18.5225 2.79929 17.7388C2.48879 17.5319 2.1783 17.3249 1.83823 17.1031C1.43902 16.8369 1.39466 16.7778 1.67559 16.3342C1.71994 16.2751 1.7643 16.2012 1.80866 16.142C1.83823 16.1124 1.85301 16.0681 1.88258 16.0237C2.7845 14.6487 3.30199 14.0277 4.39612 13.0223L4.41091 13.0075L5.20933 12.3865L5.83032 11.9134L6.28867 11.5733C6.28867 11.5733 6.30345 11.5733 6.30345 11.5585L7.26451 10.9819L7.94465 10.5827C7.95943 10.5827 7.97422 10.5679 7.989 10.5531L8.15164 10.4792L8.01857 10.6714L7.73765 11.1297C7.4863 11.5585 7.29408 11.9281 7.14623 12.4604C6.90966 13.2884 6.9688 14.3825 7.2793 15.181C7.76722 16.4377 8.68392 17.3988 10.0738 18.1085C10.5173 18.3303 11.1975 18.5816 11.641 18.6999C12.5725 18.9513 13.8736 19.1139 15.0417 19.0843C15.6775 19.0695 16.2689 18.9956 16.7568 18.8625C18.8859 18.2711 20.3349 17.3101 21.0446 16.0237C21.7691 14.7226 21.7691 13.0518 21.0446 11.0706C21.015 10.9819 20.9707 10.8932 20.9263 10.8192C20.8228 10.6418 21.0003 10.4496 21.1777 10.5235C21.5325 10.6714 21.8874 10.8192 22.257 10.9819C22.3014 11.0114 22.3605 11.0262 22.4049 11.0558C22.4788 11.0854 22.538 11.1149 22.6119 11.1445C22.671 11.1741 22.7302 11.2037 22.8041 11.2332C23.5582 11.5733 24.12 11.9134 24.7854 12.3421C25.0071 12.49 25.2289 12.6231 25.4359 12.7709C25.8351 13.0371 26.19 13.3623 26.5448 13.6728C26.6779 13.7911 26.7962 13.8946 26.9293 13.9981C27.4467 14.4565 27.4467 14.4565 27.1806 15.0775Z" fill="var(--ion-color-light)"/>
<path d="M17.0673 13.9242L14.7608 9.5773C14.7016 9.45902 14.539 9.45902 14.4651 9.5773L12.0994 13.806C12.0698 13.8503 12.0698 13.9095 12.0994 13.9686L14.332 18.1825C14.3911 18.3008 14.5538 18.3008 14.6277 18.1973L17.0673 14.1017C17.0821 14.0425 17.0969 13.9686 17.0673 13.9242ZM14.7756 10.8193L16.2689 13.939C16.2985 13.9834 16.2837 14.0425 16.2689 14.0869L14.6721 17.0144C14.6129 17.1327 14.4355 17.1327 14.3763 16.9996L12.9421 13.9834C12.9126 13.939 12.9274 13.8799 12.9421 13.8355L14.4798 10.7897C14.539 10.6862 14.7164 10.6862 14.7756 10.8193Z" fill="var(--ion-color-light)"/>
</g>
<defs>
<clipPath id="clip0_742_917">
<rect width="30" height="30" fill="var(--ion-color-light)"/>
</clipPath>
</defs>
</svg>
